<?xml version="1.0" encoding="utf-8" standalone="no"?>
<!DOCTYPE svg PUBLIC "-//W3C//DTD SVG 1.1//EN"
  "http://www.w3.org/Graphics/SVG/1.1/DTD/svg11.dtd">
<!-- Created with matplotlib (https://matplotlib.org/) -->
<svg height="288pt" version="1.1" viewBox="0 0 432 288" width="432pt" xmlns="http://www.w3.org/2000/svg" xmlns:xlink="http://www.w3.org/1999/xlink">
 <defs>
  <style type="text/css">
*{stroke-linecap:butt;stroke-linejoin:round;}
  </style>
 </defs>
 <g id="figure_1">
  <g id="patch_1">
   <path d="M 0 288 
L 432 288 
L 432 0 
L 0 0 
z
" style="fill:#ffffff;"/>
  </g>
  <g id="axes_1">
   <g id="patch_2">
    <path d="M 54 252 
L 388.8 252 
L 388.8 34.56 
L 54 34.56 
z
" style="fill:#ffffff;"/>
   </g>
   <g id="matplotlib.axis_1">
    <g id="xtick_1">
     <g id="line2d_1">
      <path clip-path="url(#pe9560e3104)" d="M 54 252 
L 54 34.56 
" style="fill:none;stroke:#808080;stroke-linecap:square;stroke-opacity:0.2;"/>
     </g>
     <g id="line2d_2">
      <defs>
       <path d="M 0 0 
L 0 3.5 
" id="maf3dc420aa" style="stroke:#000000;stroke-width:0.8;"/>
      </defs>
      <g>
       <use style="stroke:#000000;stroke-width:0.8;" x="54" xlink:href="#maf3dc420aa" y="252"/>
      </g>
     </g>
     <g id="text_1">
      <!-- $\mathdefault{10^{-4}}$ -->
      <defs>
       <path d="M 12.40625 8.296875 
L 28.515625 8.296875 
L 28.515625 63.921875 
L 10.984375 60.40625 
L 10.984375 69.390625 
L 28.421875 72.90625 
L 38.28125 72.90625 
L 38.28125 8.296875 
L 54.390625 8.296875 
L 54.390625 0 
L 12.40625 0 
z
" id="DejaVuSans-49"/>
       <path d="M 31.78125 66.40625 
Q 24.171875 66.40625 20.328125 58.90625 
Q 16.5 51.421875 16.5 36.375 
Q 16.5 21.390625 20.328125 13.890625 
Q 24.171875 6.390625 31.78125 6.390625 
Q 39.453125 6.390625 43.28125 13.890625 
Q 47.125 21.390625 47.125 36.375 
Q 47.125 51.421875 43.28125 58.90625 
Q 39.453125 66.40625 31.78125 66.40625 
z
M 31.78125 74.21875 
Q 44.046875 74.21875 50.515625 64.515625 
Q 56.984375 54.828125 56.984375 36.375 
Q 56.984375 17.96875 50.515625 8.265625 
Q 44.046875 -1.421875 31.78125 -1.421875 
Q 19.53125 -1.421875 13.0625 8.265625 
Q 6.59375 17.96875 6.59375 36.375 
Q 6.59375 54.828125 13.0625 64.515625 
Q 19.53125 74.21875 31.78125 74.21875 
z
" id="DejaVuSans-48"/>
       <path d="M 10.59375 35.5 
L 73.1875 35.5 
L 73.1875 27.203125 
L 10.59375 27.203125 
z
" id="DejaVuSans-8722"/>
       <path d="M 37.796875 64.3125 
L 12.890625 25.390625 
L 37.796875 25.390625 
z
M 35.203125 72.90625 
L 47.609375 72.90625 
L 47.609375 25.390625 
L 58.015625 25.390625 
L 58.015625 17.1875 
L 47.609375 17.1875 
L 47.609375 0 
L 37.796875 0 
L 37.796875 17.1875 
L 4.890625 17.1875 
L 4.890625 26.703125 
z
" id="DejaVuSans-52"/>
      </defs>
      <g transform="translate(46.95 263.559062)scale(0.06 -0.06)">
       <use transform="translate(0 0.684375)" xlink:href="#DejaVuSans-49"/>
       <use transform="translate(63.623047 0.684375)" xlink:href="#DejaVuSans-48"/>
       <use transform="translate(128.203125 38.965625)scale(0.7)" xlink:href="#DejaVuSans-8722"/>
       <use transform="translate(186.855469 38.965625)scale(0.7)" xlink:href="#DejaVuSans-52"/>
      </g>
     </g>
    </g>
    <g id="xtick_2">
     <g id="line2d_3">
      <path clip-path="url(#pe9560e3104)" d="M 120.96 252 
L 120.96 34.56 
" style="fill:none;stroke:#808080;stroke-linecap:square;stroke-opacity:0.2;"/>
     </g>
     <g id="line2d_4">
      <g>
       <use style="stroke:#000000;stroke-width:0.8;" x="120.96" xlink:href="#maf3dc420aa" y="252"/>
      </g>
     </g>
     <g id="text_2">
      <!-- $\mathdefault{10^{-3}}$ -->
      <defs>
       <path d="M 40.578125 39.3125 
Q 47.65625 37.796875 51.625 33 
Q 55.609375 28.21875 55.609375 21.1875 
Q 55.609375 10.40625 48.1875 4.484375 
Q 40.765625 -1.421875 27.09375 -1.421875 
Q 22.515625 -1.421875 17.65625 -0.515625 
Q 12.796875 0.390625 7.625 2.203125 
L 7.625 11.71875 
Q 11.71875 9.328125 16.59375 8.109375 
Q 21.484375 6.890625 26.8125 6.890625 
Q 36.078125 6.890625 40.9375 10.546875 
Q 45.796875 14.203125 45.796875 21.1875 
Q 45.796875 27.640625 41.28125 31.265625 
Q 36.765625 34.90625 28.71875 34.90625 
L 20.21875 34.90625 
L 20.21875 43.015625 
L 29.109375 43.015625 
Q 36.375 43.015625 40.234375 45.921875 
Q 44.09375 48.828125 44.09375 54.296875 
Q 44.09375 59.90625 40.109375 62.90625 
Q 36.140625 65.921875 28.71875 65.921875 
Q 24.65625 65.921875 20.015625 65.03125 
Q 15.375 64.15625 9.8125 62.3125 
L 9.8125 71.09375 
Q 15.4375 72.65625 20.34375 73.4375 
Q 25.25 74.21875 29.59375 74.21875 
Q 40.828125 74.21875 47.359375 69.109375 
Q 53.90625 64.015625 53.90625 55.328125 
Q 53.90625 49.265625 50.4375 45.09375 
Q 46.96875 40.921875 40.578125 39.3125 
z
" id="DejaVuSans-51"/>
      </defs>
      <g transform="translate(113.91 263.559062)scale(0.06 -0.06)">
       <use transform="translate(0 0.765625)" xlink:href="#DejaVuSans-49"/>
       <use transform="translate(63.623047 0.765625)" xlink:href="#DejaVuSans-48"/>
       <use transform="translate(128.203125 39.046875)scale(0.7)" xlink:href="#DejaVuSans-8722"/>
       <use transform="translate(186.855469 39.046875)scale(0.7)" xlink:href="#DejaVuSans-51"/>
      </g>
     </g>
    </g>
    <g id="xtick_3">
     <g id="line2d_5">
      <path clip-path="url(#pe9560e3104)" d="M 187.92 252 
L 187.92 34.56 
" style="fill:none;stroke:#808080;stroke-linecap:square;stroke-opacity:0.2;"/>
     </g>
     <g id="line2d_6">
      <g>
       <use style="stroke:#000000;stroke-width:0.8;" x="187.92" xlink:href="#maf3dc420aa" y="252"/>
      </g>
     </g>
     <g id="text_3">
      <!-- $\mathdefault{10^{-2}}$ -->
      <defs>
       <path d="M 19.1875 8.296875 
L 53.609375 8.296875 
L 53.609375 0 
L 7.328125 0 
L 7.328125 8.296875 
Q 12.9375 14.109375 22.625 23.890625 
Q 32.328125 33.6875 34.8125 36.53125 
Q 39.546875 41.84375 41.421875 45.53125 
Q 43.3125 49.21875 43.3125 52.78125 
Q 43.3125 58.59375 39.234375 62.25 
Q 35.15625 65.921875 28.609375 65.921875 
Q 23.96875 65.921875 18.8125 64.3125 
Q 13.671875 62.703125 7.8125 59.421875 
L 7.8125 69.390625 
Q 13.765625 71.78125 18.9375 73 
Q 24.125 74.21875 28.421875 74.21875 
Q 39.75 74.21875 46.484375 68.546875 
Q 53.21875 62.890625 53.21875 53.421875 
Q 53.21875 48.921875 51.53125 44.890625 
Q 49.859375 40.875 45.40625 35.40625 
Q 44.1875 33.984375 37.640625 27.21875 
Q 31.109375 20.453125 19.1875 8.296875 
z
" id="DejaVuSans-50"/>
      </defs>
      <g transform="translate(180.87 263.559062)scale(0.06 -0.06)">
       <use transform="translate(0 0.765625)" xlink:href="#DejaVuSans-49"/>
       <use transform="translate(63.623047 0.765625)" xlink:href="#DejaVuSans-48"/>
       <use transform="translate(128.203125 39.046875)scale(0.7)" xlink:href="#DejaVuSans-8722"/>
       <use transform="translate(186.855469 39.046875)scale(0.7)" xlink:href="#DejaVuSans-50"/>
      </g>
     </g>
    </g>
    <g id="xtick_4">
     <g id="line2d_7">
      <path clip-path="url(#pe9560e3104)" d="M 254.88 252 
L 254.88 34.56 
" style="fill:none;stroke:#808080;stroke-linecap:square;stroke-opacity:0.2;"/>
     </g>
     <g id="line2d_8">
      <g>
       <use style="stroke:#000000;stroke-width:0.8;" x="254.88" xlink:href="#maf3dc420aa" y="252"/>
      </g>
     </g>
     <g id="text_4">
      <!-- $\mathdefault{10^{-1}}$ -->
      <g transform="translate(247.83 263.559062)scale(0.06 -0.06)">
       <use transform="translate(0 0.684375)" xlink:href="#DejaVuSans-49"/>
       <use transform="translate(63.623047 0.684375)" xlink:href="#DejaVuSans-48"/>
       <use transform="translate(128.203125 38.965625)scale(0.7)" xlink:href="#DejaVuSans-8722"/>
       <use transform="translate(186.855469 38.965625)scale(0.7)" xlink:href="#DejaVuSans-49"/>
      </g>
     </g>
    </g>
    <g id="xtick_5">
     <g id="line2d_9">
      <path clip-path="url(#pe9560e3104)" d="M 321.84 252 
L 321.84 34.56 
" style="fill:none;stroke:#808080;stroke-linecap:square;stroke-opacity:0.2;"/>
     </g>
     <g id="line2d_10">
      <g>
       <use style="stroke:#000000;stroke-width:0.8;" x="321.84" xlink:href="#maf3dc420aa" y="252"/>
      </g>
     </g>
     <g id="text_5">
      <!-- $\mathdefault{10^{0}}$ -->
      <g transform="translate(316.56 263.559062)scale(0.06 -0.06)">
       <use transform="translate(0 0.765625)" xlink:href="#DejaVuSans-49"/>
       <use transform="translate(63.623047 0.765625)" xlink:href="#DejaVuSans-48"/>
       <use transform="translate(128.203125 39.046875)scale(0.7)" xlink:href="#DejaVuSans-48"/>
      </g>
     </g>
    </g>
    <g id="xtick_6">
     <g id="line2d_11">
      <path clip-path="url(#pe9560e3104)" d="M 388.8 252 
L 388.8 34.56 
" style="fill:none;stroke:#808080;stroke-linecap:square;stroke-opacity:0.2;"/>
     </g>
     <g id="line2d_12">
      <g>
       <use style="stroke:#000000;stroke-width:0.8;" x="388.8" xlink:href="#maf3dc420aa" y="252"/>
      </g>
     </g>
     <g id="text_6">
      <!-- $\mathdefault{10^{1}}$ -->
      <g transform="translate(383.52 263.559062)scale(0.06 -0.06)">
       <use transform="translate(0 0.684375)" xlink:href="#DejaVuSans-49"/>
       <use transform="translate(63.623047 0.684375)" xlink:href="#DejaVuSans-48"/>
       <use transform="translate(128.203125 38.965625)scale(0.7)" xlink:href="#DejaVuSans-49"/>
      </g>
     </g>
    </g>
    <g id="xtick_7">
     <g id="line2d_13">
      <defs>
       <path d="M 0 0 
L 0 2 
" id="m11adb8c8fe" style="stroke:#000000;stroke-width:0.6;"/>
      </defs>
      <g>
       <use style="stroke:#000000;stroke-width:0.6;" x="74.156969" xlink:href="#m11adb8c8fe" y="252"/>
      </g>
     </g>
    </g>
    <g id="xtick_8">
     <g id="line2d_14">
      <g>
       <use style="stroke:#000000;stroke-width:0.6;" x="85.948039" xlink:href="#m11adb8c8fe" y="252"/>
      </g>
     </g>
    </g>
    <g id="xtick_9">
     <g id="line2d_15">
      <g>
       <use style="stroke:#000000;stroke-width:0.6;" x="94.313937" xlink:href="#m11adb8c8fe" y="252"/>
      </g>
     </g>
    </g>
    <g id="xtick_10">
     <g id="line2d_16">
      <g>
       <use style="stroke:#000000;stroke-width:0.6;" x="100.803031" xlink:href="#m11adb8c8fe" y="252"/>
      </g>
     </g>
    </g>
    <g id="xtick_11">
     <g id="line2d_17">
      <g>
       <use style="stroke:#000000;stroke-width:0.6;" x="106.105008" xlink:href="#m11adb8c8fe" y="252"/>
      </g>
     </g>
    </g>
    <g id="xtick_12">
     <g id="line2d_18">
      <g>
       <use style="stroke:#000000;stroke-width:0.6;" x="110.587765" xlink:href="#m11adb8c8fe" y="252"/>
      </g>
     </g>
    </g>
    <g id="xtick_13">
     <g id="line2d_19">
      <g>
       <use style="stroke:#000000;stroke-width:0.6;" x="114.470906" xlink:href="#m11adb8c8fe" y="252"/>
      </g>
     </g>
    </g>
    <g id="xtick_14">
     <g id="line2d_20">
      <g>
       <use style="stroke:#000000;stroke-width:0.6;" x="117.896078" xlink:href="#m11adb8c8fe" y="252"/>
      </g>
     </g>
    </g>
    <g id="xtick_15">
     <g id="line2d_21">
      <g>
       <use style="stroke:#000000;stroke-width:0.6;" x="141.116969" xlink:href="#m11adb8c8fe" y="252"/>
      </g>
     </g>
    </g>
    <g id="xtick_16">
     <g id="line2d_22">
      <g>
       <use style="stroke:#000000;stroke-width:0.6;" x="152.908039" xlink:href="#m11adb8c8fe" y="252"/>
      </g>
     </g>
    </g>
    <g id="xtick_17">
     <g id="line2d_23">
      <g>
       <use style="stroke:#000000;stroke-width:0.6;" x="161.273937" xlink:href="#m11adb8c8fe" y="252"/>
      </g>
     </g>
    </g>
    <g id="xtick_18">
     <g id="line2d_24">
      <g>
       <use style="stroke:#000000;stroke-width:0.6;" x="167.763031" xlink:href="#m11adb8c8fe" y="252"/>
      </g>
     </g>
    </g>
    <g id="xtick_19">
     <g id="line2d_25">
      <g>
       <use style="stroke:#000000;stroke-width:0.6;" x="173.065008" xlink:href="#m11adb8c8fe" y="252"/>
      </g>
     </g>
    </g>
    <g id="xtick_20">
     <g id="line2d_26">
      <g>
       <use style="stroke:#000000;stroke-width:0.6;" x="177.547765" xlink:href="#m11adb8c8fe" y="252"/>
      </g>
     </g>
    </g>
    <g id="xtick_21">
     <g id="line2d_27">
      <g>
       <use style="stroke:#000000;stroke-width:0.6;" x="181.430906" xlink:href="#m11adb8c8fe" y="252"/>
      </g>
     </g>
    </g>
    <g id="xtick_22">
     <g id="line2d_28">
      <g>
       <use style="stroke:#000000;stroke-width:0.6;" x="184.856078" xlink:href="#m11adb8c8fe" y="252"/>
      </g>
     </g>
    </g>
    <g id="xtick_23">
     <g id="line2d_29">
      <g>
       <use style="stroke:#000000;stroke-width:0.6;" x="208.076969" xlink:href="#m11adb8c8fe" y="252"/>
      </g>
     </g>
    </g>
    <g id="xtick_24">
     <g id="line2d_30">
      <g>
       <use style="stroke:#000000;stroke-width:0.6;" x="219.868039" xlink:href="#m11adb8c8fe" y="252"/>
      </g>
     </g>
    </g>
    <g id="xtick_25">
     <g id="line2d_31">
      <g>
       <use style="stroke:#000000;stroke-width:0.6;" x="228.233937" xlink:href="#m11adb8c8fe" y="252"/>
      </g>
     </g>
    </g>
    <g id="xtick_26">
     <g id="line2d_32">
      <g>
       <use style="stroke:#000000;stroke-width:0.6;" x="234.723031" xlink:href="#m11adb8c8fe" y="252"/>
      </g>
     </g>
    </g>
    <g id="xtick_27">
     <g id="line2d_33">
      <g>
       <use style="stroke:#000000;stroke-width:0.6;" x="240.025008" xlink:href="#m11adb8c8fe" y="252"/>
      </g>
     </g>
    </g>
    <g id="xtick_28">
     <g id="line2d_34">
      <g>
       <use style="stroke:#000000;stroke-width:0.6;" x="244.507765" xlink:href="#m11adb8c8fe" y="252"/>
      </g>
     </g>
    </g>
    <g id="xtick_29">
     <g id="line2d_35">
      <g>
       <use style="stroke:#000000;stroke-width:0.6;" x="248.390906" xlink:href="#m11adb8c8fe" y="252"/>
      </g>
     </g>
    </g>
    <g id="xtick_30">
     <g id="line2d_36">
      <g>
       <use style="stroke:#000000;stroke-width:0.6;" x="251.816078" xlink:href="#m11adb8c8fe" y="252"/>
      </g>
     </g>
    </g>
    <g id="xtick_31">
     <g id="line2d_37">
      <g>
       <use style="stroke:#000000;stroke-width:0.6;" x="275.036969" xlink:href="#m11adb8c8fe" y="252"/>
      </g>
     </g>
    </g>
    <g id="xtick_32">
     <g id="line2d_38">
      <g>
       <use style="stroke:#000000;stroke-width:0.6;" x="286.828039" xlink:href="#m11adb8c8fe" y="252"/>
      </g>
     </g>
    </g>
    <g id="xtick_33">
     <g id="line2d_39">
      <g>
       <use style="stroke:#000000;stroke-width:0.6;" x="295.193937" xlink:href="#m11adb8c8fe" y="252"/>
      </g>
     </g>
    </g>
    <g id="xtick_34">
     <g id="line2d_40">
      <g>
       <use style="stroke:#000000;stroke-width:0.6;" x="301.683031" xlink:href="#m11adb8c8fe" y="252"/>
      </g>
     </g>
    </g>
    <g id="xtick_35">
     <g id="line2d_41">
      <g>
       <use style="stroke:#000000;stroke-width:0.6;" x="306.985008" xlink:href="#m11adb8c8fe" y="252"/>
      </g>
     </g>
    </g>
    <g id="xtick_36">
     <g id="line2d_42">
      <g>
       <use style="stroke:#000000;stroke-width:0.6;" x="311.467765" xlink:href="#m11adb8c8fe" y="252"/>
      </g>
     </g>
    </g>
    <g id="xtick_37">
     <g id="line2d_43">
      <g>
       <use style="stroke:#000000;stroke-width:0.6;" x="315.350906" xlink:href="#m11adb8c8fe" y="252"/>
      </g>
     </g>
    </g>
    <g id="xtick_38">
     <g id="line2d_44">
      <g>
       <use style="stroke:#000000;stroke-width:0.6;" x="318.776078" xlink:href="#m11adb8c8fe" y="252"/>
      </g>
     </g>
    </g>
    <g id="xtick_39">
     <g id="line2d_45">
      <g>
       <use style="stroke:#000000;stroke-width:0.6;" x="341.996969" xlink:href="#m11adb8c8fe" y="252"/>
      </g>
     </g>
    </g>
    <g id="xtick_40">
     <g id="line2d_46">
      <g>
       <use style="stroke:#000000;stroke-width:0.6;" x="353.788039" xlink:href="#m11adb8c8fe" y="252"/>
      </g>
     </g>
    </g>
    <g id="xtick_41">
     <g id="line2d_47">
      <g>
       <use style="stroke:#000000;stroke-width:0.6;" x="362.153937" xlink:href="#m11adb8c8fe" y="252"/>
      </g>
     </g>
    </g>
    <g id="xtick_42">
     <g id="line2d_48">
      <g>
       <use style="stroke:#000000;stroke-width:0.6;" x="368.643031" xlink:href="#m11adb8c8fe" y="252"/>
      </g>
     </g>
    </g>
    <g id="xtick_43">
     <g id="line2d_49">
      <g>
       <use style="stroke:#000000;stroke-width:0.6;" x="373.945008" xlink:href="#m11adb8c8fe" y="252"/>
      </g>
     </g>
    </g>
    <g id="xtick_44">
     <g id="line2d_50">
      <g>
       <use style="stroke:#000000;stroke-width:0.6;" x="378.427765" xlink:href="#m11adb8c8fe" y="252"/>
      </g>
     </g>
    </g>
    <g id="xtick_45">
     <g id="line2d_51">
      <g>
       <use style="stroke:#000000;stroke-width:0.6;" x="382.310906" xlink:href="#m11adb8c8fe" y="252"/>
      </g>
     </g>
    </g>
    <g id="xtick_46">
     <g id="line2d_52">
      <g>
       <use style="stroke:#000000;stroke-width:0.6;" x="385.736078" xlink:href="#m11adb8c8fe" y="252"/>
      </g>
     </g>
    </g>
    <g id="text_7">
     <!-- Number of False Positives Recovered (Average per Query) -->
     <defs>
      <path d="M 9.8125 72.90625 
L 23.09375 72.90625 
L 55.421875 11.921875 
L 55.421875 72.90625 
L 64.984375 72.90625 
L 64.984375 0 
L 51.703125 0 
L 19.390625 60.984375 
L 19.390625 0 
L 9.8125 0 
z
" id="DejaVuSans-78"/>
      <path d="M 8.5 21.578125 
L 8.5 54.6875 
L 17.484375 54.6875 
L 17.484375 21.921875 
Q 17.484375 14.15625 20.5 10.265625 
Q 23.53125 6.390625 29.59375 6.390625 
Q 36.859375 6.390625 41.078125 11.03125 
Q 45.3125 15.671875 45.3125 23.6875 
L 45.3125 54.6875 
L 54.296875 54.6875 
L 54.296875 0 
L 45.3125 0 
L 45.3125 8.40625 
Q 42.046875 3.421875 37.71875 1 
Q 33.40625 -1.421875 27.6875 -1.421875 
Q 18.265625 -1.421875 13.375 4.4375 
Q 8.5 10.296875 8.5 21.578125 
z
M 31.109375 56 
z
" id="DejaVuSans-117"/>
      <path d="M 52 44.1875 
Q 55.375 50.25 60.0625 53.125 
Q 64.75 56 71.09375 56 
Q 79.640625 56 84.28125 50.015625 
Q 88.921875 44.046875 88.921875 33.015625 
L 88.921875 0 
L 79.890625 0 
L 79.890625 32.71875 
Q 79.890625 40.578125 77.09375 44.375 
Q 74.3125 48.1875 68.609375 48.1875 
Q 61.625 48.1875 57.5625 43.546875 
Q 53.515625 38.921875 53.515625 30.90625 
L 53.515625 0 
L 44.484375 0 
L 44.484375 32.71875 
Q 44.484375 40.625 41.703125 44.40625 
Q 38.921875 48.1875 33.109375 48.1875 
Q 26.21875 48.1875 22.15625 43.53125 
Q 18.109375 38.875 18.109375 30.90625 
L 18.109375 0 
L 9.078125 0 
L 9.078125 54.6875 
L 18.109375 54.6875 
L 18.109375 46.1875 
Q 21.1875 51.21875 25.484375 53.609375 
Q 29.78125 56 35.6875 56 
Q 41.65625 56 45.828125 52.96875 
Q 50 49.953125 52 44.1875 
z
" id="DejaVuSans-109"/>
      <path d="M 48.6875 27.296875 
Q 48.6875 37.203125 44.609375 42.84375 
Q 40.53125 48.484375 33.40625 48.484375 
Q 26.265625 48.484375 22.1875 42.84375 
Q 18.109375 37.203125 18.109375 27.296875 
Q 18.109375 17.390625 22.1875 11.75 
Q 26.265625 6.109375 33.40625 6.109375 
Q 40.53125 6.109375 44.609375 11.75 
Q 48.6875 17.390625 48.6875 27.296875 
z
M 18.109375 46.390625 
Q 20.953125 51.265625 25.265625 53.625 
Q 29.59375 56 35.59375 56 
Q 45.5625 56 51.78125 48.09375 
Q 58.015625 40.1875 58.015625 27.296875 
Q 58.015625 14.40625 51.78125 6.484375 
Q 45.5625 -1.421875 35.59375 -1.421875 
Q 29.59375 -1.421875 25.265625 0.953125 
Q 20.953125 3.328125 18.109375 8.203125 
L 18.109375 0 
L 9.078125 0 
L 9.078125 75.984375 
L 18.109375 75.984375 
z
" id="DejaVuSans-98"/>
      <path d="M 56.203125 29.59375 
L 56.203125 25.203125 
L 14.890625 25.203125 
Q 15.484375 15.921875 20.484375 11.0625 
Q 25.484375 6.203125 34.421875 6.203125 
Q 39.59375 6.203125 44.453125 7.46875 
Q 49.3125 8.734375 54.109375 11.28125 
L 54.109375 2.78125 
Q 49.265625 0.734375 44.1875 -0.34375 
Q 39.109375 -1.421875 33.890625 -1.421875 
Q 20.796875 -1.421875 13.15625 6.1875 
Q 5.515625 13.8125 5.515625 26.8125 
Q 5.515625 40.234375 12.765625 48.109375 
Q 20.015625 56 32.328125 56 
Q 43.359375 56 49.78125 48.890625 
Q 56.203125 41.796875 56.203125 29.59375 
z
M 47.21875 32.234375 
Q 47.125 39.59375 43.09375 43.984375 
Q 39.0625 48.390625 32.421875 48.390625 
Q 24.90625 48.390625 20.390625 44.140625 
Q 15.875 39.890625 15.1875 32.171875 
z
" id="DejaVuSans-101"/>
      <path d="M 41.109375 46.296875 
Q 39.59375 47.171875 37.8125 47.578125 
Q 36.03125 48 33.890625 48 
Q 26.265625 48 22.1875 43.046875 
Q 18.109375 38.09375 18.109375 28.8125 
L 18.109375 0 
L 9.078125 0 
L 9.078125 54.6875 
L 18.109375 54.6875 
L 18.109375 46.1875 
Q 20.953125 51.171875 25.484375 53.578125 
Q 30.03125 56 36.53125 56 
Q 37.453125 56 38.578125 55.875 
Q 39.703125 55.765625 41.0625 55.515625 
z
" id="DejaVuSans-114"/>
      <path id="DejaVuSans-32"/>
      <path d="M 30.609375 48.390625 
Q 23.390625 48.390625 19.1875 42.75 
Q 14.984375 37.109375 14.984375 27.296875 
Q 14.984375 17.484375 19.15625 11.84375 
Q 23.34375 6.203125 30.609375 6.203125 
Q 37.796875 6.203125 41.984375 11.859375 
Q 46.1875 17.53125 46.1875 27.296875 
Q 46.1875 37.015625 41.984375 42.703125 
Q 37.796875 48.390625 30.609375 48.390625 
z
M 30.609375 56 
Q 42.328125 56 49.015625 48.375 
Q 55.71875 40.765625 55.71875 27.296875 
Q 55.71875 13.875 49.015625 6.21875 
Q 42.328125 -1.421875 30.609375 -1.421875 
Q 18.84375 -1.421875 12.171875 6.21875 
Q 5.515625 13.875 5.515625 27.296875 
Q 5.515625 40.765625 12.171875 48.375 
Q 18.84375 56 30.609375 56 
z
" id="DejaVuSans-111"/>
      <path d="M 37.109375 75.984375 
L 37.109375 68.5 
L 28.515625 68.5 
Q 23.6875 68.5 21.796875 66.546875 
Q 19.921875 64.59375 19.921875 59.515625 
L 19.921875 54.6875 
L 34.71875 54.6875 
L 34.71875 47.703125 
L 19.921875 47.703125 
L 19.921875 0 
L 10.890625 0 
L 10.890625 47.703125 
L 2.296875 47.703125 
L 2.296875 54.6875 
L 10.890625 54.6875 
L 10.890625 58.5 
Q 10.890625 67.625 15.140625 71.796875 
Q 19.390625 75.984375 28.609375 75.984375 
z
" id="DejaVuSans-102"/>
      <path d="M 9.8125 72.90625 
L 51.703125 72.90625 
L 51.703125 64.59375 
L 19.671875 64.59375 
L 19.671875 43.109375 
L 48.578125 43.109375 
L 48.578125 34.8125 
L 19.671875 34.8125 
L 19.671875 0 
L 9.8125 0 
z
" id="DejaVuSans-70"/>
      <path d="M 34.28125 27.484375 
Q 23.390625 27.484375 19.1875 25 
Q 14.984375 22.515625 14.984375 16.5 
Q 14.984375 11.71875 18.140625 8.90625 
Q 21.296875 6.109375 26.703125 6.109375 
Q 34.1875 6.109375 38.703125 11.40625 
Q 43.21875 16.703125 43.21875 25.484375 
L 43.21875 27.484375 
z
M 52.203125 31.203125 
L 52.203125 0 
L 43.21875 0 
L 43.21875 8.296875 
Q 40.140625 3.328125 35.546875 0.953125 
Q 30.953125 -1.421875 24.3125 -1.421875 
Q 15.921875 -1.421875 10.953125 3.296875 
Q 6 8.015625 6 15.921875 
Q 6 25.140625 12.171875 29.828125 
Q 18.359375 34.515625 30.609375 34.515625 
L 43.21875 34.515625 
L 43.21875 35.40625 
Q 43.21875 41.609375 39.140625 45 
Q 35.0625 48.390625 27.6875 48.390625 
Q 23 48.390625 18.546875 47.265625 
Q 14.109375 46.140625 10.015625 43.890625 
L 10.015625 52.203125 
Q 14.9375 54.109375 19.578125 55.046875 
Q 24.21875 56 28.609375 56 
Q 40.484375 56 46.34375 49.84375 
Q 52.203125 43.703125 52.203125 31.203125 
z
" id="DejaVuSans-97"/>
      <path d="M 9.421875 75.984375 
L 18.40625 75.984375 
L 18.40625 0 
L 9.421875 0 
z
" id="DejaVuSans-108"/>
      <path d="M 44.28125 53.078125 
L 44.28125 44.578125 
Q 40.484375 46.53125 36.375 47.5 
Q 32.28125 48.484375 27.875 48.484375 
Q 21.1875 48.484375 17.84375 46.4375 
Q 14.5 44.390625 14.5 40.28125 
Q 14.5 37.15625 16.890625 35.375 
Q 19.28125 33.59375 26.515625 31.984375 
L 29.59375 31.296875 
Q 39.15625 29.25 43.1875 25.515625 
Q 47.21875 21.78125 47.21875 15.09375 
Q 47.21875 7.46875 41.1875 3.015625 
Q 35.15625 -1.421875 24.609375 -1.421875 
Q 20.21875 -1.421875 15.453125 -0.5625 
Q 10.6875 0.296875 5.421875 2 
L 5.421875 11.28125 
Q 10.40625 8.6875 15.234375 7.390625 
Q 20.0625 6.109375 24.8125 6.109375 
Q 31.15625 6.109375 34.5625 8.28125 
Q 37.984375 10.453125 37.984375 14.40625 
Q 37.984375 18.0625 35.515625 20.015625 
Q 33.0625 21.96875 24.703125 23.78125 
L 21.578125 24.515625 
Q 13.234375 26.265625 9.515625 29.90625 
Q 5.8125 33.546875 5.8125 39.890625 
Q 5.8125 47.609375 11.28125 51.796875 
Q 16.75 56 26.8125 56 
Q 31.78125 56 36.171875 55.265625 
Q 40.578125 54.546875 44.28125 53.078125 
z
" id="DejaVuSans-115"/>
      <path d="M 19.671875 64.796875 
L 19.671875 37.40625 
L 32.078125 37.40625 
Q 38.96875 37.40625 42.71875 40.96875 
Q 46.484375 44.53125 46.484375 51.125 
Q 46.484375 57.671875 42.71875 61.234375 
Q 38.96875 64.796875 32.078125 64.796875 
z
M 9.8125 72.90625 
L 32.078125 72.90625 
Q 44.34375 72.90625 50.609375 67.359375 
Q 56.890625 61.8125 56.890625 51.125 
Q 56.890625 40.328125 50.609375 34.8125 
Q 44.34375 29.296875 32.078125 29.296875 
L 19.671875 29.296875 
L 19.671875 0 
L 9.8125 0 
z
" id="DejaVuSans-80"/>
      <path d="M 9.421875 54.6875 
L 18.40625 54.6875 
L 18.40625 0 
L 9.421875 0 
z
M 9.421875 75.984375 
L 18.40625 75.984375 
L 18.40625 64.59375 
L 9.421875 64.59375 
z
" id="DejaVuSans-105"/>
      <path d="M 18.3125 70.21875 
L 18.3125 54.6875 
L 36.8125 54.6875 
L 36.8125 47.703125 
L 18.3125 47.703125 
L 18.3125 18.015625 
Q 18.3125 11.328125 20.140625 9.421875 
Q 21.96875 7.515625 27.59375 7.515625 
L 36.8125 7.515625 
L 36.8125 0 
L 27.59375 0 
Q 17.1875 0 13.234375 3.875 
Q 9.28125 7.765625 9.28125 18.015625 
L 9.28125 47.703125 
L 2.6875 47.703125 
L 2.6875 54.6875 
L 9.28125 54.6875 
L 9.28125 70.21875 
z
" id="DejaVuSans-116"/>
      <path d="M 2.984375 54.6875 
L 12.5 54.6875 
L 29.59375 8.796875 
L 46.6875 54.6875 
L 56.203125 54.6875 
L 35.6875 0 
L 23.484375 0 
z
" id="DejaVuSans-118"/>
      <path d="M 44.390625 34.1875 
Q 47.5625 33.109375 50.5625 29.59375 
Q 53.5625 26.078125 56.59375 19.921875 
L 66.609375 0 
L 56 0 
L 46.6875 18.703125 
Q 43.0625 26.03125 39.671875 28.421875 
Q 36.28125 30.8125 30.421875 30.8125 
L 19.671875 30.8125 
L 19.671875 0 
L 9.8125 0 
L 9.8125 72.90625 
L 32.078125 72.90625 
Q 44.578125 72.90625 50.734375 67.671875 
Q 56.890625 62.453125 56.890625 51.90625 
Q 56.890625 45.015625 53.6875 40.46875 
Q 50.484375 35.9375 44.390625 34.1875 
z
M 19.671875 64.796875 
L 19.671875 38.921875 
L 32.078125 38.921875 
Q 39.203125 38.921875 42.84375 42.21875 
Q 46.484375 45.515625 46.484375 51.90625 
Q 46.484375 58.296875 42.84375 61.546875 
Q 39.203125 64.796875 32.078125 64.796875 
z
" id="DejaVuSans-82"/>
      <path d="M 48.78125 52.59375 
L 48.78125 44.1875 
Q 44.96875 46.296875 41.140625 47.34375 
Q 37.3125 48.390625 33.40625 48.390625 
Q 24.65625 48.390625 19.8125 42.84375 
Q 14.984375 37.3125 14.984375 27.296875 
Q 14.984375 17.28125 19.8125 11.734375 
Q 24.65625 6.203125 33.40625 6.203125 
Q 37.3125 6.203125 41.140625 7.25 
Q 44.96875 8.296875 48.78125 10.40625 
L 48.78125 2.09375 
Q 45.015625 0.34375 40.984375 -0.53125 
Q 36.96875 -1.421875 32.421875 -1.421875 
Q 20.0625 -1.421875 12.78125 6.34375 
Q 5.515625 14.109375 5.515625 27.296875 
Q 5.515625 40.671875 12.859375 48.328125 
Q 20.21875 56 33.015625 56 
Q 37.15625 56 41.109375 55.140625 
Q 45.0625 54.296875 48.78125 52.59375 
z
" id="DejaVuSans-99"/>
      <path d="M 45.40625 46.390625 
L 45.40625 75.984375 
L 54.390625 75.984375 
L 54.390625 0 
L 45.40625 0 
L 45.40625 8.203125 
Q 42.578125 3.328125 38.25 0.953125 
Q 33.9375 -1.421875 27.875 -1.421875 
Q 17.96875 -1.421875 11.734375 6.484375 
Q 5.515625 14.40625 5.515625 27.296875 
Q 5.515625 40.1875 11.734375 48.09375 
Q 17.96875 56 27.875 56 
Q 33.9375 56 38.25 53.625 
Q 42.578125 51.265625 45.40625 46.390625 
z
M 14.796875 27.296875 
Q 14.796875 17.390625 18.875 11.75 
Q 22.953125 6.109375 30.078125 6.109375 
Q 37.203125 6.109375 41.296875 11.75 
Q 45.40625 17.390625 45.40625 27.296875 
Q 45.40625 37.203125 41.296875 42.84375 
Q 37.203125 48.484375 30.078125 48.484375 
Q 22.953125 48.484375 18.875 42.84375 
Q 14.796875 37.203125 14.796875 27.296875 
z
" id="DejaVuSans-100"/>
      <path d="M 31 75.875 
Q 24.46875 64.65625 21.28125 53.65625 
Q 18.109375 42.671875 18.109375 31.390625 
Q 18.109375 20.125 21.3125 9.0625 
Q 24.515625 -2 31 -13.1875 
L 23.1875 -13.1875 
Q 15.875 -1.703125 12.234375 9.375 
Q 8.59375 20.453125 8.59375 31.390625 
Q 8.59375 42.28125 12.203125 53.3125 
Q 15.828125 64.359375 23.1875 75.875 
z
" id="DejaVuSans-40"/>
      <path d="M 34.1875 63.1875 
L 20.796875 26.90625 
L 47.609375 26.90625 
z
M 28.609375 72.90625 
L 39.796875 72.90625 
L 67.578125 0 
L 57.328125 0 
L 50.6875 18.703125 
L 17.828125 18.703125 
L 11.1875 0 
L 0.78125 0 
z
" id="DejaVuSans-65"/>
      <path d="M 45.40625 27.984375 
Q 45.40625 37.75 41.375 43.109375 
Q 37.359375 48.484375 30.078125 48.484375 
Q 22.859375 48.484375 18.828125 43.109375 
Q 14.796875 37.75 14.796875 27.984375 
Q 14.796875 18.265625 18.828125 12.890625 
Q 22.859375 7.515625 30.078125 7.515625 
Q 37.359375 7.515625 41.375 12.890625 
Q 45.40625 18.265625 45.40625 27.984375 
z
M 54.390625 6.78125 
Q 54.390625 -7.171875 48.1875 -13.984375 
Q 42 -20.796875 29.203125 -20.796875 
Q 24.46875 -20.796875 20.265625 -20.09375 
Q 16.0625 -19.390625 12.109375 -17.921875 
L 12.109375 -9.1875 
Q 16.0625 -11.328125 19.921875 -12.34375 
Q 23.78125 -13.375 27.78125 -13.375 
Q 36.625 -13.375 41.015625 -8.765625 
Q 45.40625 -4.15625 45.40625 5.171875 
L 45.40625 9.625 
Q 42.625 4.78125 38.28125 2.390625 
Q 33.9375 0 27.875 0 
Q 17.828125 0 11.671875 7.65625 
Q 5.515625 15.328125 5.515625 27.984375 
Q 5.515625 40.671875 11.671875 48.328125 
Q 17.828125 56 27.875 56 
Q 33.9375 56 38.28125 53.609375 
Q 42.625 51.21875 45.40625 46.390625 
L 45.40625 54.6875 
L 54.390625 54.6875 
z
" id="DejaVuSans-103"/>
      <path d="M 18.109375 8.203125 
L 18.109375 -20.796875 
L 9.078125 -20.796875 
L 9.078125 54.6875 
L 18.109375 54.6875 
L 18.109375 46.390625 
Q 20.953125 51.265625 25.265625 53.625 
Q 29.59375 56 35.59375 56 
Q 45.5625 56 51.78125 48.09375 
Q 58.015625 40.1875 58.015625 27.296875 
Q 58.015625 14.40625 51.78125 6.484375 
Q 45.5625 -1.421875 35.59375 -1.421875 
Q 29.59375 -1.421875 25.265625 0.953125 
Q 20.953125 3.328125 18.109375 8.203125 
z
M 48.6875 27.296875 
Q 48.6875 37.203125 44.609375 42.84375 
Q 40.53125 48.484375 33.40625 48.484375 
Q 26.265625 48.484375 22.1875 42.84375 
Q 18.109375 37.203125 18.109375 27.296875 
Q 18.109375 17.390625 22.1875 11.75 
Q 26.265625 6.109375 33.40625 6.109375 
Q 40.53125 6.109375 44.609375 11.75 
Q 48.6875 17.390625 48.6875 27.296875 
z
" id="DejaVuSans-112"/>
      <path d="M 39.40625 66.21875 
Q 28.65625 66.21875 22.328125 58.203125 
Q 16.015625 50.203125 16.015625 36.375 
Q 16.015625 22.609375 22.328125 14.59375 
Q 28.65625 6.59375 39.40625 6.59375 
Q 50.140625 6.59375 56.421875 14.59375 
Q 62.703125 22.609375 62.703125 36.375 
Q 62.703125 50.203125 56.421875 58.203125 
Q 50.140625 66.21875 39.40625 66.21875 
z
M 53.21875 1.3125 
L 66.21875 -12.890625 
L 54.296875 -12.890625 
L 43.5 -1.21875 
Q 41.890625 -1.3125 41.03125 -1.359375 
Q 40.1875 -1.421875 39.40625 -1.421875 
Q 24.03125 -1.421875 14.8125 8.859375 
Q 5.609375 19.140625 5.609375 36.375 
Q 5.609375 53.65625 14.8125 63.9375 
Q 24.03125 74.21875 39.40625 74.21875 
Q 54.734375 74.21875 63.90625 63.9375 
Q 73.09375 53.65625 73.09375 36.375 
Q 73.09375 23.6875 67.984375 14.640625 
Q 62.890625 5.609375 53.21875 1.3125 
z
" id="DejaVuSans-81"/>
      <path d="M 32.171875 -5.078125 
Q 28.375 -14.84375 24.75 -17.8125 
Q 21.140625 -20.796875 15.09375 -20.796875 
L 7.90625 -20.796875 
L 7.90625 -13.28125 
L 13.1875 -13.28125 
Q 16.890625 -13.28125 18.9375 -11.515625 
Q 21 -9.765625 23.484375 -3.21875 
L 25.09375 0.875 
L 2.984375 54.6875 
L 12.5 54.6875 
L 29.59375 11.921875 
L 46.6875 54.6875 
L 56.203125 54.6875 
z
" id="DejaVuSans-121"/>
      <path d="M 8.015625 75.875 
L 15.828125 75.875 
Q 23.140625 64.359375 26.78125 53.3125 
Q 30.421875 42.28125 30.421875 31.390625 
Q 30.421875 20.453125 26.78125 9.375 
Q 23.140625 -1.703125 15.828125 -13.1875 
L 8.015625 -13.1875 
Q 14.5 -2 17.703125 9.0625 
Q 20.90625 20.125 20.90625 31.390625 
Q 20.90625 42.671875 17.703125 53.65625 
Q 14.5 64.65625 8.015625 75.875 
z
" id="DejaVuSans-41"/>
     </defs>
     <g transform="translate(133.793438 273.365937)scale(0.06 -0.06)">
      <use xlink:href="#DejaVuSans-78"/>
      <use x="74.804688" xlink:href="#DejaVuSans-117"/>
      <use x="138.183594" xlink:href="#DejaVuSans-109"/>
      <use x="235.595703" xlink:href="#DejaVuSans-98"/>
      <use x="299.072266" xlink:href="#DejaVuSans-101"/>
      <use x="360.595703" xlink:href="#DejaVuSans-114"/>
      <use x="401.708984" xlink:href="#DejaVuSans-32"/>
      <use x="433.496094" xlink:href="#DejaVuSans-111"/>
      <use x="494.677734" xlink:href="#DejaVuSans-102"/>
      <use x="529.882812" xlink:href="#DejaVuSans-32"/>
      <use x="561.669922" xlink:href="#DejaVuSans-70"/>
      <use x="619.048828" xlink:href="#DejaVuSans-97"/>
      <use x="680.328125" xlink:href="#DejaVuSans-108"/>
      <use x="708.111328" xlink:href="#DejaVuSans-115"/>
      <use x="760.210938" xlink:href="#DejaVuSans-101"/>
      <use x="821.734375" xlink:href="#DejaVuSans-32"/>
      <use x="853.521484" xlink:href="#DejaVuSans-80"/>
      <use x="913.777344" xlink:href="#DejaVuSans-111"/>
      <use x="974.958984" xlink:href="#DejaVuSans-115"/>
      <use x="1027.058594" xlink:href="#DejaVuSans-105"/>
      <use x="1054.841797" xlink:href="#DejaVuSans-116"/>
      <use x="1094.050781" xlink:href="#DejaVuSans-105"/>
      <use x="1121.833984" xlink:href="#DejaVuSans-118"/>
      <use x="1181.013672" xlink:href="#DejaVuSans-101"/>
      <use x="1242.537109" xlink:href="#DejaVuSans-115"/>
      <use x="1294.636719" xlink:href="#DejaVuSans-32"/>
      <use x="1326.423828" xlink:href="#DejaVuSans-82"/>
      <use x="1395.84375" xlink:href="#DejaVuSans-101"/>
      <use x="1457.367188" xlink:href="#DejaVuSans-99"/>
      <use x="1512.347656" xlink:href="#DejaVuSans-111"/>
      <use x="1573.529297" xlink:href="#DejaVuSans-118"/>
      <use x="1632.708984" xlink:href="#DejaVuSans-101"/>
      <use x="1694.232422" xlink:href="#DejaVuSans-114"/>
      <use x="1735.314453" xlink:href="#DejaVuSans-101"/>
      <use x="1796.837891" xlink:href="#DejaVuSans-100"/>
      <use x="1860.314453" xlink:href="#DejaVuSans-32"/>
      <use x="1892.101562" xlink:href="#DejaVuSans-40"/>
      <use x="1931.115234" xlink:href="#DejaVuSans-65"/>
      <use x="1999.445312" xlink:href="#DejaVuSans-118"/>
      <use x="2058.625" xlink:href="#DejaVuSans-101"/>
      <use x="2120.148438" xlink:href="#DejaVuSans-114"/>
      <use x="2161.261719" xlink:href="#DejaVuSans-97"/>
      <use x="2222.541016" xlink:href="#DejaVuSans-103"/>
      <use x="2286.017578" xlink:href="#DejaVuSans-101"/>
      <use x="2347.541016" xlink:href="#DejaVuSans-32"/>
      <use x="2379.328125" xlink:href="#DejaVuSans-112"/>
      <use x="2442.804688" xlink:href="#DejaVuSans-101"/>
      <use x="2504.328125" xlink:href="#DejaVuSans-114"/>
      <use x="2545.441406" xlink:href="#DejaVuSans-32"/>
      <use x="2577.228516" xlink:href="#DejaVuSans-81"/>
      <use x="2655.939453" xlink:href="#DejaVuSans-117"/>
      <use x="2719.318359" xlink:href="#DejaVuSans-101"/>
      <use x="2780.841797" xlink:href="#DejaVuSans-114"/>
      <use x="2821.955078" xlink:href="#DejaVuSans-121"/>
      <use x="2881.134766" xlink:href="#DejaVuSans-41"/>
     </g>
    </g>
   </g>
   <g id="matplotlib.axis_2">
    <g id="ytick_1">
     <g id="line2d_53">
      <path clip-path="url(#pe9560e3104)" d="M 54 243.491301 
L 388.8 243.491301 
" style="fill:none;stroke:#808080;stroke-linecap:square;stroke-opacity:0.2;"/>
     </g>
     <g id="line2d_54">
      <defs>
       <path d="M 0 0 
L -3.5 0 
" id="mb09bdb8c93" style="stroke:#000000;stroke-width:0.8;"/>
      </defs>
      <g>
       <use style="stroke:#000000;stroke-width:0.8;" x="54" xlink:href="#mb09bdb8c93" y="243.491301"/>
      </g>
     </g>
     <g id="text_8">
      <!-- 0.0 -->
      <defs>
       <path d="M 10.6875 12.40625 
L 21 12.40625 
L 21 0 
L 10.6875 0 
z
" id="DejaVuSans-46"/>
      </defs>
      <g transform="translate(37.458125 245.770832)scale(0.06 -0.06)">
       <use xlink:href="#DejaVuSans-48"/>
       <use x="63.623047" xlink:href="#DejaVuSans-46"/>
       <use x="95.410156" xlink:href="#DejaVuSans-48"/>
      </g>
     </g>
    </g>
    <g id="ytick_2">
     <g id="line2d_55">
      <path clip-path="url(#pe9560e3104)" d="M 54 222.598171 
L 388.8 222.598171 
" style="fill:none;stroke:#808080;stroke-linecap:square;stroke-opacity:0.2;"/>
     </g>
     <g id="line2d_56">
      <g>
       <use style="stroke:#000000;stroke-width:0.8;" x="54" xlink:href="#mb09bdb8c93" y="222.598171"/>
      </g>
     </g>
     <g id="text_9">
      <!-- 0.1 -->
      <g transform="translate(37.458125 224.877702)scale(0.06 -0.06)">
       <use xlink:href="#DejaVuSans-48"/>
       <use x="63.623047" xlink:href="#DejaVuSans-46"/>
       <use x="95.410156" xlink:href="#DejaVuSans-49"/>
      </g>
     </g>
    </g>
    <g id="ytick_3">
     <g id="line2d_57">
      <path clip-path="url(#pe9560e3104)" d="M 54 201.705041 
L 388.8 201.705041 
" style="fill:none;stroke:#808080;stroke-linecap:square;stroke-opacity:0.2;"/>
     </g>
     <g id="line2d_58">
      <g>
       <use style="stroke:#000000;stroke-width:0.8;" x="54" xlink:href="#mb09bdb8c93" y="201.705041"/>
      </g>
     </g>
     <g id="text_10">
      <!-- 0.2 -->
      <g transform="translate(37.458125 203.984572)scale(0.06 -0.06)">
       <use xlink:href="#DejaVuSans-48"/>
       <use x="63.623047" xlink:href="#DejaVuSans-46"/>
       <use x="95.410156" xlink:href="#DejaVuSans-50"/>
      </g>
     </g>
    </g>
    <g id="ytick_4">
     <g id="line2d_59">
      <path clip-path="url(#pe9560e3104)" d="M 54 180.811911 
L 388.8 180.811911 
" style="fill:none;stroke:#808080;stroke-linecap:square;stroke-opacity:0.2;"/>
     </g>
     <g id="line2d_60">
      <g>
       <use style="stroke:#000000;stroke-width:0.8;" x="54" xlink:href="#mb09bdb8c93" y="180.811911"/>
      </g>
     </g>
     <g id="text_11">
      <!-- 0.3 -->
      <g transform="translate(37.458125 183.091442)scale(0.06 -0.06)">
       <use xlink:href="#DejaVuSans-48"/>
       <use x="63.623047" xlink:href="#DejaVuSans-46"/>
       <use x="95.410156" xlink:href="#DejaVuSans-51"/>
      </g>
     </g>
    </g>
    <g id="ytick_5">
     <g id="line2d_61">
      <path clip-path="url(#pe9560e3104)" d="M 54 159.918781 
L 388.8 159.918781 
" style="fill:none;stroke:#808080;stroke-linecap:square;stroke-opacity:0.2;"/>
     </g>
     <g id="line2d_62">
      <g>
       <use style="stroke:#000000;stroke-width:0.8;" x="54" xlink:href="#mb09bdb8c93" y="159.918781"/>
      </g>
     </g>
     <g id="text_12">
      <!-- 0.4 -->
      <g transform="translate(37.458125 162.198312)scale(0.06 -0.06)">
       <use xlink:href="#DejaVuSans-48"/>
       <use x="63.623047" xlink:href="#DejaVuSans-46"/>
       <use x="95.410156" xlink:href="#DejaVuSans-52"/>
      </g>
     </g>
    </g>
    <g id="ytick_6">
     <g id="line2d_63">
      <path clip-path="url(#pe9560e3104)" d="M 54 139.025651 
L 388.8 139.025651 
" style="fill:none;stroke:#808080;stroke-linecap:square;stroke-opacity:0.2;"/>
     </g>
     <g id="line2d_64">
      <g>
       <use style="stroke:#000000;stroke-width:0.8;" x="54" xlink:href="#mb09bdb8c93" y="139.025651"/>
      </g>
     </g>
     <g id="text_13">
      <!-- 0.5 -->
      <defs>
       <path d="M 10.796875 72.90625 
L 49.515625 72.90625 
L 49.515625 64.59375 
L 19.828125 64.59375 
L 19.828125 46.734375 
Q 21.96875 47.46875 24.109375 47.828125 
Q 26.265625 48.1875 28.421875 48.1875 
Q 40.625 48.1875 47.75 41.5 
Q 54.890625 34.8125 54.890625 23.390625 
Q 54.890625 11.625 47.5625 5.09375 
Q 40.234375 -1.421875 26.90625 -1.421875 
Q 22.3125 -1.421875 17.546875 -0.640625 
Q 12.796875 0.140625 7.71875 1.703125 
L 7.71875 11.625 
Q 12.109375 9.234375 16.796875 8.0625 
Q 21.484375 6.890625 26.703125 6.890625 
Q 35.15625 6.890625 40.078125 11.328125 
Q 45.015625 15.765625 45.015625 23.390625 
Q 45.015625 31 40.078125 35.4375 
Q 35.15625 39.890625 26.703125 39.890625 
Q 22.75 39.890625 18.8125 39.015625 
Q 14.890625 38.140625 10.796875 36.28125 
z
" id="DejaVuSans-53"/>
      </defs>
      <g transform="translate(37.458125 141.305182)scale(0.06 -0.06)">
       <use xlink:href="#DejaVuSans-48"/>
       <use x="63.623047" xlink:href="#DejaVuSans-46"/>
       <use x="95.410156" xlink:href="#DejaVuSans-53"/>
      </g>
     </g>
    </g>
    <g id="ytick_7">
     <g id="line2d_65">
      <path clip-path="url(#pe9560e3104)" d="M 54 118.13252 
L 388.8 118.13252 
" style="fill:none;stroke:#808080;stroke-linecap:square;stroke-opacity:0.2;"/>
     </g>
     <g id="line2d_66">
      <g>
       <use style="stroke:#000000;stroke-width:0.8;" x="54" xlink:href="#mb09bdb8c93" y="118.13252"/>
      </g>
     </g>
     <g id="text_14">
      <!-- 0.6 -->
      <defs>
       <path d="M 33.015625 40.375 
Q 26.375 40.375 22.484375 35.828125 
Q 18.609375 31.296875 18.609375 23.390625 
Q 18.609375 15.53125 22.484375 10.953125 
Q 26.375 6.390625 33.015625 6.390625 
Q 39.65625 6.390625 43.53125 10.953125 
Q 47.40625 15.53125 47.40625 23.390625 
Q 47.40625 31.296875 43.53125 35.828125 
Q 39.65625 40.375 33.015625 40.375 
z
M 52.59375 71.296875 
L 52.59375 62.3125 
Q 48.875 64.0625 45.09375 64.984375 
Q 41.3125 65.921875 37.59375 65.921875 
Q 27.828125 65.921875 22.671875 59.328125 
Q 17.53125 52.734375 16.796875 39.40625 
Q 19.671875 43.65625 24.015625 45.921875 
Q 28.375 48.1875 33.59375 48.1875 
Q 44.578125 48.1875 50.953125 41.515625 
Q 57.328125 34.859375 57.328125 23.390625 
Q 57.328125 12.15625 50.6875 5.359375 
Q 44.046875 -1.421875 33.015625 -1.421875 
Q 20.359375 -1.421875 13.671875 8.265625 
Q 6.984375 17.96875 6.984375 36.375 
Q 6.984375 53.65625 15.1875 63.9375 
Q 23.390625 74.21875 37.203125 74.21875 
Q 40.921875 74.21875 44.703125 73.484375 
Q 48.484375 72.75 52.59375 71.296875 
z
" id="DejaVuSans-54"/>
      </defs>
      <g transform="translate(37.458125 120.412052)scale(0.06 -0.06)">
       <use xlink:href="#DejaVuSans-48"/>
       <use x="63.623047" xlink:href="#DejaVuSans-46"/>
       <use x="95.410156" xlink:href="#DejaVuSans-54"/>
      </g>
     </g>
    </g>
    <g id="ytick_8">
     <g id="line2d_67">
      <path clip-path="url(#pe9560e3104)" d="M 54 97.23939 
L 388.8 97.23939 
" style="fill:none;stroke:#808080;stroke-linecap:square;stroke-opacity:0.2;"/>
     </g>
     <g id="line2d_68">
      <g>
       <use style="stroke:#000000;stroke-width:0.8;" x="54" xlink:href="#mb09bdb8c93" y="97.23939"/>
      </g>
     </g>
     <g id="text_15">
      <!-- 0.7 -->
      <defs>
       <path d="M 8.203125 72.90625 
L 55.078125 72.90625 
L 55.078125 68.703125 
L 28.609375 0 
L 18.3125 0 
L 43.21875 64.59375 
L 8.203125 64.59375 
z
" id="DejaVuSans-55"/>
      </defs>
      <g transform="translate(37.458125 99.518922)scale(0.06 -0.06)">
       <use xlink:href="#DejaVuSans-48"/>
       <use x="63.623047" xlink:href="#DejaVuSans-46"/>
       <use x="95.410156" xlink:href="#DejaVuSans-55"/>
      </g>
     </g>
    </g>
    <g id="ytick_9">
     <g id="line2d_69">
      <path clip-path="url(#pe9560e3104)" d="M 54 76.34626 
L 388.8 76.34626 
" style="fill:none;stroke:#808080;stroke-linecap:square;stroke-opacity:0.2;"/>
     </g>
     <g id="line2d_70">
      <g>
       <use style="stroke:#000000;stroke-width:0.8;" x="54" xlink:href="#mb09bdb8c93" y="76.34626"/>
      </g>
     </g>
     <g id="text_16">
      <!-- 0.8 -->
      <defs>
       <path d="M 31.78125 34.625 
Q 24.75 34.625 20.71875 30.859375 
Q 16.703125 27.09375 16.703125 20.515625 
Q 16.703125 13.921875 20.71875 10.15625 
Q 24.75 6.390625 31.78125 6.390625 
Q 38.8125 6.390625 42.859375 10.171875 
Q 46.921875 13.96875 46.921875 20.515625 
Q 46.921875 27.09375 42.890625 30.859375 
Q 38.875 34.625 31.78125 34.625 
z
M 21.921875 38.8125 
Q 15.578125 40.375 12.03125 44.71875 
Q 8.5 49.078125 8.5 55.328125 
Q 8.5 64.0625 14.71875 69.140625 
Q 20.953125 74.21875 31.78125 74.21875 
Q 42.671875 74.21875 48.875 69.140625 
Q 55.078125 64.0625 55.078125 55.328125 
Q 55.078125 49.078125 51.53125 44.71875 
Q 48 40.375 41.703125 38.8125 
Q 48.828125 37.15625 52.796875 32.3125 
Q 56.78125 27.484375 56.78125 20.515625 
Q 56.78125 9.90625 50.3125 4.234375 
Q 43.84375 -1.421875 31.78125 -1.421875 
Q 19.734375 -1.421875 13.25 4.234375 
Q 6.78125 9.90625 6.78125 20.515625 
Q 6.78125 27.484375 10.78125 32.3125 
Q 14.796875 37.15625 21.921875 38.8125 
z
M 18.3125 54.390625 
Q 18.3125 48.734375 21.84375 45.5625 
Q 25.390625 42.390625 31.78125 42.390625 
Q 38.140625 42.390625 41.71875 45.5625 
Q 45.3125 48.734375 45.3125 54.390625 
Q 45.3125 60.0625 41.71875 63.234375 
Q 38.140625 66.40625 31.78125 66.40625 
Q 25.390625 66.40625 21.84375 63.234375 
Q 18.3125 60.0625 18.3125 54.390625 
z
" id="DejaVuSans-56"/>
      </defs>
      <g transform="translate(37.458125 78.625791)scale(0.06 -0.06)">
       <use xlink:href="#DejaVuSans-48"/>
       <use x="63.623047" xlink:href="#DejaVuSans-46"/>
       <use x="95.410156" xlink:href="#DejaVuSans-56"/>
      </g>
     </g>
    </g>
    <g id="ytick_10">
     <g id="line2d_71">
      <path clip-path="url(#pe9560e3104)" d="M 54 55.45313 
L 388.8 55.45313 
" style="fill:none;stroke:#808080;stroke-linecap:square;stroke-opacity:0.2;"/>
     </g>
     <g id="line2d_72">
      <g>
       <use style="stroke:#000000;stroke-width:0.8;" x="54" xlink:href="#mb09bdb8c93" y="55.45313"/>
      </g>
     </g>
     <g id="text_17">
      <!-- 0.9 -->
      <defs>
       <path d="M 10.984375 1.515625 
L 10.984375 10.5 
Q 14.703125 8.734375 18.5 7.8125 
Q 22.3125 6.890625 25.984375 6.890625 
Q 35.75 6.890625 40.890625 13.453125 
Q 46.046875 20.015625 46.78125 33.40625 
Q 43.953125 29.203125 39.59375 26.953125 
Q 35.25 24.703125 29.984375 24.703125 
Q 19.046875 24.703125 12.671875 31.3125 
Q 6.296875 37.9375 6.296875 49.421875 
Q 6.296875 60.640625 12.9375 67.421875 
Q 19.578125 74.21875 30.609375 74.21875 
Q 43.265625 74.21875 49.921875 64.515625 
Q 56.59375 54.828125 56.59375 36.375 
Q 56.59375 19.140625 48.40625 8.859375 
Q 40.234375 -1.421875 26.421875 -1.421875 
Q 22.703125 -1.421875 18.890625 -0.6875 
Q 15.09375 0.046875 10.984375 1.515625 
z
M 30.609375 32.421875 
Q 37.25 32.421875 41.125 36.953125 
Q 45.015625 41.5 45.015625 49.421875 
Q 45.015625 57.28125 41.125 61.84375 
Q 37.25 66.40625 30.609375 66.40625 
Q 23.96875 66.40625 20.09375 61.84375 
Q 16.21875 57.28125 16.21875 49.421875 
Q 16.21875 41.5 20.09375 36.953125 
Q 23.96875 32.421875 30.609375 32.421875 
z
" id="DejaVuSans-57"/>
      </defs>
      <g transform="translate(37.458125 57.732661)scale(0.06 -0.06)">
       <use xlink:href="#DejaVuSans-48"/>
       <use x="63.623047" xlink:href="#DejaVuSans-46"/>
       <use x="95.410156" xlink:href="#DejaVuSans-57"/>
      </g>
     </g>
    </g>
    <g id="ytick_11">
     <g id="line2d_73">
      <path clip-path="url(#pe9560e3104)" d="M 54 34.56 
L 388.8 34.56 
" style="fill:none;stroke:#808080;stroke-linecap:square;stroke-opacity:0.2;"/>
     </g>
     <g id="line2d_74">
      <g>
       <use style="stroke:#000000;stroke-width:0.8;" x="54" xlink:href="#mb09bdb8c93" y="34.56"/>
      </g>
     </g>
     <g id="text_18">
      <!-- 1.0 -->
      <g transform="translate(37.458125 36.839531)scale(0.06 -0.06)">
       <use xlink:href="#DejaVuSans-49"/>
       <use x="63.623047" xlink:href="#DejaVuSans-46"/>
       <use x="95.410156" xlink:href="#DejaVuSans-48"/>
      </g>
     </g>
    </g>
    <g id="text_19">
     <!-- Percent of True Positives Recovered -->
     <defs>
      <path d="M 54.890625 33.015625 
L 54.890625 0 
L 45.90625 0 
L 45.90625 32.71875 
Q 45.90625 40.484375 42.875 44.328125 
Q 39.84375 48.1875 33.796875 48.1875 
Q 26.515625 48.1875 22.3125 43.546875 
Q 18.109375 38.921875 18.109375 30.90625 
L 18.109375 0 
L 9.078125 0 
L 9.078125 54.6875 
L 18.109375 54.6875 
L 18.109375 46.1875 
Q 21.34375 51.125 25.703125 53.5625 
Q 30.078125 56 35.796875 56 
Q 45.21875 56 50.046875 50.171875 
Q 54.890625 44.34375 54.890625 33.015625 
z
" id="DejaVuSans-110"/>
      <path d="M -0.296875 72.90625 
L 61.375 72.90625 
L 61.375 64.59375 
L 35.5 64.59375 
L 35.5 0 
L 25.59375 0 
L 25.59375 64.59375 
L -0.296875 64.59375 
z
" id="DejaVuSans-84"/>
     </defs>
     <g transform="translate(32.210313 197.501719)rotate(-90)scale(0.06 -0.06)">
      <use xlink:href="#DejaVuSans-80"/>
      <use x="60.255859" xlink:href="#DejaVuSans-101"/>
      <use x="121.779297" xlink:href="#DejaVuSans-114"/>
      <use x="162.861328" xlink:href="#DejaVuSans-99"/>
      <use x="217.841797" xlink:href="#DejaVuSans-101"/>
      <use x="279.365234" xlink:href="#DejaVuSans-110"/>
      <use x="342.744141" xlink:href="#DejaVuSans-116"/>
      <use x="381.953125" xlink:href="#DejaVuSans-32"/>
      <use x="413.740234" xlink:href="#DejaVuSans-111"/>
      <use x="474.921875" xlink:href="#DejaVuSans-102"/>
      <use x="510.126953" xlink:href="#DejaVuSans-32"/>
      <use x="541.914062" xlink:href="#DejaVuSans-84"/>
      <use x="602.779297" xlink:href="#DejaVuSans-114"/>
      <use x="643.892578" xlink:href="#DejaVuSans-117"/>
      <use x="707.271484" xlink:href="#DejaVuSans-101"/>
      <use x="768.794922" xlink:href="#DejaVuSans-32"/>
      <use x="800.582031" xlink:href="#DejaVuSans-80"/>
      <use x="860.837891" xlink:href="#DejaVuSans-111"/>
      <use x="922.019531" xlink:href="#DejaVuSans-115"/>
      <use x="974.119141" xlink:href="#DejaVuSans-105"/>
      <use x="1001.902344" xlink:href="#DejaVuSans-116"/>
      <use x="1041.111328" xlink:href="#DejaVuSans-105"/>
      <use x="1068.894531" xlink:href="#DejaVuSans-118"/>
      <use x="1128.074219" xlink:href="#DejaVuSans-101"/>
      <use x="1189.597656" xlink:href="#DejaVuSans-115"/>
      <use x="1241.697266" xlink:href="#DejaVuSans-32"/>
      <use x="1273.484375" xlink:href="#DejaVuSans-82"/>
      <use x="1342.904297" xlink:href="#DejaVuSans-101"/>
      <use x="1404.427734" xlink:href="#DejaVuSans-99"/>
      <use x="1459.408203" xlink:href="#DejaVuSans-111"/>
      <use x="1520.589844" xlink:href="#DejaVuSans-118"/>
      <use x="1579.769531" xlink:href="#DejaVuSans-101"/>
      <use x="1641.292969" xlink:href="#DejaVuSans-114"/>
      <use x="1682.375" xlink:href="#DejaVuSans-101"/>
      <use x="1743.898438" xlink:href="#DejaVuSans-100"/>
     </g>
    </g>
   </g>
   <g id="line2d_75">
    <path clip-path="url(#pe9560e3104)" d="M -1 141.62214 
L 98.821908 141.62214 
L 98.821908 141.513572 
L 98.821908 111.984184 
L 98.821908 111.984184 
L 118.978876 111.984184 
L 118.978876 111.875616 
L 118.978876 91.537972 
L 118.978876 91.537972 
L 130.769947 91.537972 
L 130.769947 91.429404 
L 130.769947 87.032576 
L 139.135845 87.032576 
L 139.135845 86.924008 
L 139.135845 86.652601 
L 150.926916 86.580223 
L 150.926916 86.544034 
L 150.926916 86.525939 
L 155.409674 86.525939 
L 155.409674 86.417371 
L 155.409674 86.145965 
L 159.292813 86.12787 
L 159.292813 86.037397 
L 159.292813 85.132704 
L 162.717987 85.132704 
L 162.717987 85.024136 
L 162.717987 85.006042 
L 165.781907 85.006042 
L 165.781907 84.897474 
L 165.781907 84.71654 
L 165.781907 84.71654 
L 171.083884 84.607973 
L 171.083884 84.209904 
L 171.083884 84.209904 
L 173.411554 84.209904 
L 173.411554 84.101349 
L 173.411554 83.992781 
L 175.566642 83.992781 
L 175.566642 83.884213 
L 175.566642 83.70328 
L 179.449782 83.70328 
L 179.449782 83.594712 
L 179.449782 83.522333 
L 182.874955 83.413778 
L 182.874955 83.413778 
L 182.874955 83.160454 
L 184.447249 83.160454 
L 184.447249 83.051899 
L 184.447249 82.889047 
L 188.710532 82.816669 
L 188.710532 82.780479 
L 188.710532 82.599546 
L 193.568523 82.490978 
L 193.568523 82.4186 
L 197.729947 82.310044 
L 197.729947 82.201477 
L 199.60675 82.201477 
L 199.60675 82.092909 
L 199.60675 82.074814 
L 199.60675 82.074814 
L 206.813914 81.966259 
L 206.813914 81.966259 
L 206.813914 81.93007 
L 211.997437 81.839597 
L 211.997437 81.821502 
L 211.997437 81.803408 
L 214.279419 81.767219 
L 214.279419 81.69484 
L 214.279419 81.640556 
L 217.886916 81.586285 
L 217.886916 81.532001 
L 217.886916 81.459623 
L 220.658569 81.36915 
L 220.658569 81.351055 
L 220.658569 81.33296 
L 221.951242 81.224405 
L 221.951242 81.206311 
L 222.369673 81.206311 
L 222.369673 81.097743 
L 222.369673 81.061554 
L 222.369673 81.061554 
L 223.985664 80.952986 
L 223.985664 80.934891 
L 223.985664 80.934891 
L 225.516562 80.844431 
L 225.516562 80.826336 
L 225.516562 80.808242 
L 225.516562 80.808242 
L 226.252813 80.808242 
L 226.252813 80.699674 
L 226.252813 80.591106 
L 226.252813 80.591106 
L 229.677987 80.482551 
L 229.677987 80.355889 
L 231.55479 80.247321 
L 231.55479 80.174943 
L 233.601489 80.066387 
L 233.601489 80.066387 
L 233.601489 80.030198 
L 235.776735 79.939725 
L 235.776735 79.921631 
L 235.776735 79.831158 
L 237.307633 79.722602 
L 237.307633 79.704508 
L 239.692606 79.59594 
L 239.692606 79.59594 
L 239.692606 79.577845 
L 240.146995 79.523562 
L 240.146995 79.469278 
L 240.146995 79.415006 
L 241.683674 79.306439 
L 241.683674 79.288344 
L 243.746974 79.215966 
L 243.746974 79.179777 
L 243.746974 79.161682 
L 245.298296 79.053127 
L 245.298296 79.053127 
L 245.298296 79.016937 
L 247.828616 78.90837 
L 247.828616 78.890275 
L 248.849085 78.817897 
L 248.849085 78.781708 
L 248.849085 78.763613 
L 250.47411 78.673152 
L 250.47411 78.655058 
L 250.47411 78.636963 
L 252.898876 78.528395 
L 252.898876 78.492206 
L 254.317712 78.383639 
L 254.317712 78.347449 
L 256.709226 78.238894 
L 256.709226 78.238894 
L 256.709226 78.2208 
L 256.709226 78.2208 
L 259.504061 78.112232 
L 259.504061 78.112232 
L 259.504061 78.094137 
L 259.504061 78.094137 
L 261.409813 77.98557 
L 261.409813 77.967487 
L 261.518121 77.967487 
L 264.397681 77.85892 
L 264.397681 77.85892 
L 264.397681 77.840825 
L 264.495428 77.840825 
L 265.455265 77.750352 
L 265.455265 77.732258 
L 265.455265 77.714163 
L 265.549527 77.714163 
L 268.244079 77.605608 
L 268.244079 77.587513 
L 268.329736 77.587513 
L 271.333724 77.49704 
L 271.333724 77.478945 
L 271.410759 77.424662 
L 273.055845 77.334189 
L 273.055845 77.316094 
L 273.055845 77.297999 
L 273.128456 77.297999 
L 275.226506 77.189444 
L 275.226506 77.17135 
L 275.293899 77.17135 
L 276.866195 77.062782 
L 276.866195 77.044687 
L 276.929896 77.044687 
L 278.957437 76.93612 
L 278.957437 76.918025 
L 279.016725 76.918025 
L 279.369932 76.80947 
L 279.369932 76.791375 
L 279.428384 76.791375 
L 281.512477 76.700902 
L 281.512477 76.682807 
L 281.512477 76.664713 
L 281.620988 76.664713 
L 286.126942 76.556145 
L 286.126942 76.556145 
L 286.126942 76.538051 
L 286.219556 76.538051 
L 289.037405 76.44759 
L 289.037405 76.429495 
L 289.079337 76.393306 
L 289.121211 76.393306 
L 291.911878 76.302833 
L 291.911878 76.284739 
L 291.911878 76.266644 
L 291.987806 76.266644 
L 295.044144 76.158089 
L 295.044144 76.158089 
L 295.044144 76.121899 
L 295.14636 76.121899 
L 299.291906 76.013332 
L 299.291906 75.995237 
L 299.380251 75.995237 
L 303.101219 75.88667 
L 303.101219 75.88667 
L 303.101219 75.868575 
L 303.204525 75.868575 
L 306.097796 75.76002 
L 306.097796 75.76002 
L 306.097796 75.741925 
L 306.191004 75.741925 
L 308.941499 75.633357 
L 308.9838 75.597168 
L 309.047131 75.597168 
L 309.714237 75.488601 
L 309.714237 75.488601 
L 309.714237 75.452411 
L 309.817104 75.452411 
L 311.043627 75.343856 
L 311.043627 75.325762 
L 311.141903 75.325762 
L 314.140999 75.217194 
L 314.140999 75.199099 
L 314.247003 75.199099 
L 317.116288 75.090532 
L 317.116288 75.072449 
L 317.212 75.072449 
L 319.092784 74.963882 
L 319.092784 74.945787 
L 319.197094 74.945787 
L 321.42964 74.83722 
L 321.42964 74.819125 
L 321.539638 74.819125 
L 323.102541 74.71057 
L 323.102541 74.692475 
L 323.206398 74.692475 
L 325.221374 74.583907 
L 325.221374 74.565813 
L 325.329996 74.565813 
L 328.434846 74.457245 
L 328.434846 74.439151 
L 328.542911 74.439151 
L 332.48128 74.330595 
L 332.48128 74.330595 
L 332.509527 74.294406 
L 332.584719 74.294406 
L 334.209335 74.185838 
L 334.227083 74.149649 
L 334.315662 74.149649 
L 336.190806 74.041082 
L 336.190806 74.022987 
L 336.298404 74.022987 
L 338.053614 73.914432 
L 338.053614 73.896337 
L 338.162297 73.896337 
L 339.413502 73.78777 
L 339.413502 73.78777 
L 339.413502 73.769675 
L 339.517228 73.769675 
L 340.225917 73.661107 
L 340.225917 73.661107 
L 340.225917 73.643013 
L 340.333982 73.643013 
L 341.156397 73.534457 
L 341.156397 73.516363 
L 341.261067 73.516363 
L 342.341278 73.407795 
L 342.341278 73.407795 
L 342.341278 73.389701 
L 342.448464 73.389701 
L 343.621402 73.281133 
L 343.698367 73.226862 
L 343.730376 73.226862 
L 346.690461 73.118294 
L 346.690461 73.100199 
L 346.800058 73.100199 
L 348.254238 72.991632 
L 348.254238 72.973537 
L 348.363563 72.973537 
L 349.218375 72.937348 
L 349.218375 72.937348 
" style="fill:none;stroke:#ff0000;stroke-linecap:square;stroke-opacity:0.5;stroke-width:2;"/>
   </g>
   <g id="line2d_76">
    <path clip-path="url(#pe9560e3104)" d="M -1 156.515004 
L 145.624939 156.477304 
L 233.031268 141.712607 
L 281.566781 133.62459 
L 305.148925 129.734386 
L 319.062912 127.237417 
L 328.99245 125.138517 
L 336.741137 123.672903 
L 343.063767 122.551075 
L 348.21039 121.574003 
L 352.66179 120.741676 
L 356.546107 120.054106 
L 359.968534 119.601753 
L 363.056606 119.040845 
L 365.830057 118.534208 
L 368.378329 118.027572 
L 370.723707 117.683787 
L 372.957265 117.321907 
L 374.965945 116.833377 
L 376.877562 116.290551 
L 378.68662 116.00105 
L 380.380628 115.765833 
L 381.991667 115.367764 
L 383.488786 114.9516 
L 384.929664 114.662099 
L 386.315823 114.35449 
L 387.633248 114.083084 
L 388.871898 113.920245 
" style="fill:none;stroke:#0000ff;stroke-linecap:square;stroke-opacity:0.5;stroke-width:2;"/>
   </g>
   <g id="line2d_77">
    <path clip-path="url(#pe9560e3104)" d="M -1 142.346143 
L 98.821908 142.345899 
L 98.821908 142.164959 
L 118.978876 142.002114 
L 118.978876 125.627046 
L 130.769947 125.373734 
L 130.769947 122.786292 
L 145.624939 122.514886 
L 145.624939 120.904515 
L 150.926916 120.777865 
L 150.926916 119.547469 
L 155.409674 119.456996 
L 155.409674 119.276062 
L 159.292813 119.167495 
L 159.292813 118.78752 
L 162.717987 118.697047 
L 162.717987 118.534208 
L 165.781907 118.425641 
L 165.781907 118.262802 
L 168.553563 118.208518 
L 168.553563 117.919016 
L 179.449782 117.502853 
L 179.449782 117.213352 
L 184.447249 116.996216 
L 184.447249 116.905743 
L 192.427971 116.760999 
L 195.723611 116.453403 
L 201.369737 115.910577 
L 203.031924 115.856293 
L 204.604217 115.530603 
L 204.604217 115.349669 
L 208.198957 115.168723 
L 208.8675 115.060155 
L 208.8675 114.915411 
L 210.160173 114.607815 
L 218.367594 114.119273 
L 218.840455 114.010705 
L 226.252813 113.54027 
L 226.614065 113.449797 
L 231.55479 113.033634 
L 231.856142 112.943161 
L 236.806235 112.744132 
L 242.108211 112.364158 
L 245.108845 112.147023 
L 246.59097 112.038467 
L 248.512894 111.966089 
L 249.996065 111.730872 
L 254.455861 111.441358 
L 258.681531 111.260424 
L 260.191031 111.061383 
L 262.579565 110.898544 
L 267.724775 110.554759 
L 273.128456 110.319542 
L 274.056251 110.229069 
L 295.851982 109.324363 
L 296.345719 109.251985 
L 304.242769 108.799644 
L 307.841555 108.691077 
L 308.407507 108.654887 
L 309.79656 108.564414 
L 310.627193 108.492048 
L 312.408972 108.365386 
L 316.584168 108.256819 
L 317.434109 108.220629 
L 320.32048 108.112074 
L 321.33305 108.05779 
L 321.853579 107.967317 
L 322.204437 107.913033 
L 324.412172 107.804466 
L 325.354079 107.714005 
L 327.766805 107.605437 
L 328.467309 107.569248 
L 331.47494 107.478775 
L 331.708051 107.424491 
L 333.01334 107.315936 
L 333.635598 107.261652 
L 335.24694 107.153085 
L 335.764804 107.13499 
L 340.790602 107.026435 
L 340.960002 106.990246 
L 343.408687 106.881678 
L 344.086495 106.77311 
L 346.394224 106.664555 
L 346.62682 106.610271 
L 350.023021 106.501704 
L 350.233545 106.483609 
L 353.428146 106.375041 
L 353.665538 106.356947 
L 357.866339 106.248392 
L 358.1132 106.230297 
L 362.340102 106.121729 
L 362.555238 106.103635 
L 366.454702 105.995067 
L 366.62408 105.976972 
L 374.574269 105.868417 
L 374.731132 105.850323 
L 387.980393 105.741755 
L 388.121158 105.72366 
L 388.810864 105.72366 
L 388.810864 105.72366 
" style="fill:none;stroke:#32cd32;stroke-linecap:square;stroke-opacity:0.5;stroke-width:2;"/>
   </g>
   <g id="line2d_78">
    <path clip-path="url(#pe9560e3104)" d="M -1 135.379934 
L 98.821908 135.379717 
L 98.821908 131.344756 
L 118.978876 131.254283 
L 118.978876 127.472634 
L 130.769947 127.32789 
L 130.769947 126.586036 
L 139.135845 126.495563 
L 139.135845 126.332711 
L 165.781907 125.68133 
L 165.781907 125.391829 
L 171.083884 125.247072 
L 171.083884 125.102328 
L 173.411554 124.903287 
L 173.411554 124.613786 
L 175.566642 124.469041 
L 175.566642 124.30619 
L 177.572979 124.179527 
L 182.874955 124.052878 
L 182.874955 123.926215 
L 191.240853 123.365307 
L 191.240853 123.111983 
L 192.427971 123.003428 
L 192.427971 122.840576 
L 194.666025 122.750103 
L 194.666025 122.605359 
L 196.744078 122.370129 
L 203.031924 122.062533 
L 203.828695 121.935883 
L 205.359593 121.84541 
L 205.359593 121.700653 
L 208.198957 121.519719 
L 208.8675 121.411152 
L 210.160173 121.212123 
L 214.822993 120.850244 
L 214.822993 120.687392 
L 220.658569 120.19885 
L 221.095876 120.090295 
L 223.590005 119.945538 
L 223.985664 119.83697 
L 225.887019 119.74651 
L 226.252813 119.601753 
L 229.024469 119.456996 
L 229.353062 119.348441 
L 231.25028 119.095116 
L 234.979962 118.443735 
L 235.247986 118.335168 
L 238.761955 118.118045 
L 239.692606 117.900922 
L 246.409781 117.611408 
L 246.771034 117.502853 
L 249.834956 117.068595 
L 249.996065 116.923838 
L 254.317712 116.706715 
L 256.963203 116.507674 
L 258.800468 116.399119 
L 261.082452 116.127712 
L 270.788695 115.385858 
L 276.351485 114.933505 
L 283.406261 114.336396 
L 284.209914 114.227841 
L 286.311873 114.046894 
L 287.219292 113.974516 
L 289.823968 113.865961 
L 290.390225 113.811677 
L 292.957241 113.703109 
L 295.044144 113.449797 
L 300.249252 112.997444 
L 301.505919 112.870782 
L 302.893502 112.762227 
L 307.37626 112.472726 
L 308.856718 112.382253 
L 309.319991 112.309874 
L 310.507109 112.273685 
L 312.837864 112.165117 
L 314.892291 111.984184 
L 318.275272 111.875616 
L 318.91309 111.767061 
L 320.534359 111.658493 
L 321.608174 111.586115 
L 322.590847 111.495642 
L 322.932976 111.441358 
L 325.100205 111.332803 
L 326.055705 111.24233 
L 327.241413 111.151856 
L 327.533229 111.115667 
L 328.380663 111.007112 
L 329.393274 110.898544 
L 331.377256 110.808071 
L 331.543122 110.753788 
L 333.096464 110.645232 
L 333.932845 110.572854 
L 336.082808 110.464286 
L 336.968075 110.355719 
L 338.378451 110.247163 
L 338.9421 110.210974 
L 341.634784 110.120501 
L 341.860824 110.084312 
L 343.473312 109.975744 
L 343.75596 109.95765 
L 344.8537 109.849094 
L 345.263244 109.831 
L 346.047709 109.722432 
L 346.259633 109.686243 
L 348.034346 109.577688 
L 348.461603 109.505309 
L 350.007557 109.396742 
L 350.340785 109.324363 
L 352.802639 109.215808 
L 353.082304 109.197713 
L 356.438845 109.089146 
L 356.767627 109.034862 
L 358.79194 108.926294 
L 359.015971 108.9082 
L 359.455198 108.799644 
L 359.652001 108.78155 
L 363.948065 108.672982 
L 364.161179 108.654887 
L 367.223517 108.54632 
L 367.414004 108.528225 
L 371.075622 108.41967 
L 371.230119 108.401575 
L 373.539238 108.293008 
L 373.678933 108.274913 
L 374.963758 108.166345 
L 375.133757 108.148251 
L 380.382443 108.039696 
L 380.53083 108.021601 
L 382.909137 107.913033 
L 383.05017 107.894939 
L 385.584768 107.786371 
L 385.724003 107.768289 
L 388.806791 107.695911 
L 388.806791 107.695911 
" style="fill:none;stroke:#800080;stroke-linecap:square;stroke-opacity:0.5;stroke-width:2;"/>
   </g>
   <g id="line2d_79">
    <path clip-path="url(#pe9560e3104)" d="M -1 185.228899 
L 98.821908 185.228656 
L 98.821908 174.951266 
L 118.978876 174.788421 
L 118.978876 165.777616 
L 130.769947 165.614771 
L 130.769947 160.783672 
L 139.135845 160.620827 
L 139.135845 160.439887 
L 145.624939 160.277041 
L 145.624939 151.085297 
L 150.926916 150.94054 
L 150.926916 146.000886 
L 159.292813 145.693284 
L 159.292813 144.318143 
L 162.717987 144.155298 
L 162.717987 138.274755 
L 165.781907 138.111904 
L 165.781907 131.779002 
L 168.553563 131.670447 
L 168.553563 130.729552 
L 171.083884 130.47624 
L 171.083884 129.698197 
L 173.411554 129.571547 
L 173.411554 127.744053 
L 177.572979 127.45454 
L 177.572979 127.165038 
L 181.212768 127.038376 
L 181.212768 126.785064 
L 182.874955 126.64032 
L 182.874955 125.862276 
L 184.447249 125.735614 
L 184.447249 125.590857 
L 185.938876 125.446113 
L 185.938876 122.967238 
L 187.357711 122.858671 
L 187.357711 122.080627 
L 191.240853 121.664464 
L 191.240853 121.519719 
L 193.568523 121.447341 
L 193.568523 121.302584 
L 196.744078 121.194029 
L 197.729947 121.031177 
L 199.60675 120.814054 
L 200.501601 120.687392 
L 200.501601 120.415985 
L 204.604217 120.216945 
L 204.604217 120.0722 
L 205.359593 119.945538 
L 205.359593 119.818876 
L 206.095844 119.674131 
L 206.095844 119.402725 
L 208.8675 118.896088 
L 211.997437 118.570398 
L 213.725491 118.09995 
L 214.822993 117.882827 
L 214.822993 117.756165 
L 225.887019 116.36293 
L 225.887019 116.254362 
L 226.970883 116.073429 
L 229.677987 115.892482 
L 230.942549 115.693454 
L 233.317775 115.494413 
L 235.776735 115.204912 
L 243.345861 114.408774 
L 243.345861 114.300219 
L 244.918154 114.137368 
L 244.918154 114.010705 
L 251.25379 113.34123 
L 251.559903 113.232662 
L 256.709226 112.689849 
L 257.214984 112.49082 
L 259.734857 112.346063 
L 263.401679 112.020373 
L 270.709992 111.767061 
L 271.101392 111.676588 
L 272.616334 111.604209 
L 274.750325 111.477547 
L 276.481018 111.332803 
L 279.252671 111.115667 
L 280.908331 111.007112 
L 281.836797 110.898544 
L 284.846917 110.663327 
L 285.800456 110.590948 
L 292.327048 110.138596 
L 292.476563 110.084312 
L 294.666248 109.975744 
L 295.349718 109.849094 
L 296.345719 109.758621 
L 297.56024 109.650054 
L 299.203291 109.487215 
L 301.176082 109.378647 
L 301.832058 109.342458 
L 304.564375 109.23389 
L 308.750391 109.125335 
L 309.734839 109.016767 
L 311.878154 108.9082 
L 312.352558 108.87201 
L 314.370188 108.763455 
L 316.470032 108.654887 
L 317.227921 108.618698 
L 321.194507 108.510131 
L 321.580779 108.383481 
L 324.30006 108.274913 
L 325.245547 108.202535 
L 327.965534 108.093979 
L 328.629077 108.075885 
L 330.483017 107.967317 
L 331.11186 107.85875 
L 331.679012 107.82256 
L 335.570627 107.714005 
L 336.066158 107.695911 
L 338.585374 107.587343 
L 339.070058 107.569248 
L 341.641659 107.460681 
L 341.874468 107.406409 
L 343.928053 107.297842 
L 344.237791 107.261652 
L 348.716055 107.153085 
L 348.978985 107.13499 
L 352.420771 107.026435 
L 352.708816 106.990246 
L 355.980615 106.881678 
L 356.218963 106.863583 
L 359.14053 106.755016 
L 359.376849 106.736921 
L 365.833048 106.628366 
L 366.035805 106.610271 
L 367.883438 106.501704 
L 368.086281 106.483609 
L 374.44327 106.375041 
L 374.609691 106.356947 
L 377.334442 106.248392 
L 377.493171 106.230297 
L 381.855741 106.121729 
L 382.013974 106.103635 
L 388.802718 106.013162 
L 388.802718 106.013162 
" style="fill:none;stroke:#ff8c00;stroke-linecap:square;stroke-opacity:0.5;stroke-width:2;"/>
   </g>
   <g id="patch_3">
    <path d="M 54 252 
L 54 34.56 
" style="fill:none;stroke:#000000;stroke-linecap:square;stroke-linejoin:miter;stroke-width:0.8;"/>
   </g>
   <g id="patch_4">
    <path d="M 388.8 252 
L 388.8 34.56 
" style="fill:none;stroke:#000000;stroke-linecap:square;stroke-linejoin:miter;stroke-width:0.8;"/>
   </g>
   <g id="patch_5">
    <path d="M 54 252 
L 388.8 252 
" style="fill:none;stroke:#000000;stroke-linecap:square;stroke-linejoin:miter;stroke-width:0.8;"/>
   </g>
   <g id="patch_6">
    <path d="M 54 34.56 
L 388.8 34.56 
" style="fill:none;stroke:#000000;stroke-linecap:square;stroke-linejoin:miter;stroke-width:0.8;"/>
   </g>
   <g id="text_20">
    <!-- ROC Plot ==&gt; Profile-to-Sequence -->
    <defs>
     <path d="M 39.40625 66.21875 
Q 28.65625 66.21875 22.328125 58.203125 
Q 16.015625 50.203125 16.015625 36.375 
Q 16.015625 22.609375 22.328125 14.59375 
Q 28.65625 6.59375 39.40625 6.59375 
Q 50.140625 6.59375 56.421875 14.59375 
Q 62.703125 22.609375 62.703125 36.375 
Q 62.703125 50.203125 56.421875 58.203125 
Q 50.140625 66.21875 39.40625 66.21875 
z
M 39.40625 74.21875 
Q 54.734375 74.21875 63.90625 63.9375 
Q 73.09375 53.65625 73.09375 36.375 
Q 73.09375 19.140625 63.90625 8.859375 
Q 54.734375 -1.421875 39.40625 -1.421875 
Q 24.03125 -1.421875 14.8125 8.828125 
Q 5.609375 19.09375 5.609375 36.375 
Q 5.609375 53.65625 14.8125 63.9375 
Q 24.03125 74.21875 39.40625 74.21875 
z
" id="DejaVuSans-79"/>
     <path d="M 64.40625 67.28125 
L 64.40625 56.890625 
Q 59.421875 61.53125 53.78125 63.8125 
Q 48.140625 66.109375 41.796875 66.109375 
Q 29.296875 66.109375 22.65625 58.46875 
Q 16.015625 50.828125 16.015625 36.375 
Q 16.015625 21.96875 22.65625 14.328125 
Q 29.296875 6.6875 41.796875 6.6875 
Q 48.140625 6.6875 53.78125 8.984375 
Q 59.421875 11.28125 64.40625 15.921875 
L 64.40625 5.609375 
Q 59.234375 2.09375 53.4375 0.328125 
Q 47.65625 -1.421875 41.21875 -1.421875 
Q 24.65625 -1.421875 15.125 8.703125 
Q 5.609375 18.84375 5.609375 36.375 
Q 5.609375 53.953125 15.125 64.078125 
Q 24.65625 74.21875 41.21875 74.21875 
Q 47.75 74.21875 53.53125 72.484375 
Q 59.328125 70.75 64.40625 67.28125 
z
" id="DejaVuSans-67"/>
     <path d="M 10.59375 45.40625 
L 73.1875 45.40625 
L 73.1875 37.203125 
L 10.59375 37.203125 
z
M 10.59375 25.484375 
L 73.1875 25.484375 
L 73.1875 17.1875 
L 10.59375 17.1875 
z
" id="DejaVuSans-61"/>
     <path d="M 10.59375 49.21875 
L 10.59375 58.109375 
L 73.1875 35.40625 
L 73.1875 27.296875 
L 10.59375 4.59375 
L 10.59375 13.484375 
L 60.890625 31.296875 
z
" id="DejaVuSans-62"/>
     <path d="M 4.890625 31.390625 
L 31.203125 31.390625 
L 31.203125 23.390625 
L 4.890625 23.390625 
z
" id="DejaVuSans-45"/>
     <path d="M 53.515625 70.515625 
L 53.515625 60.890625 
Q 47.90625 63.578125 42.921875 64.890625 
Q 37.9375 66.21875 33.296875 66.21875 
Q 25.25 66.21875 20.875 63.09375 
Q 16.5 59.96875 16.5 54.203125 
Q 16.5 49.359375 19.40625 46.890625 
Q 22.3125 44.4375 30.421875 42.921875 
L 36.375 41.703125 
Q 47.40625 39.59375 52.65625 34.296875 
Q 57.90625 29 57.90625 20.125 
Q 57.90625 9.515625 50.796875 4.046875 
Q 43.703125 -1.421875 29.984375 -1.421875 
Q 24.8125 -1.421875 18.96875 -0.25 
Q 13.140625 0.921875 6.890625 3.21875 
L 6.890625 13.375 
Q 12.890625 10.015625 18.65625 8.296875 
Q 24.421875 6.59375 29.984375 6.59375 
Q 38.421875 6.59375 43.015625 9.90625 
Q 47.609375 13.234375 47.609375 19.390625 
Q 47.609375 24.75 44.3125 27.78125 
Q 41.015625 30.8125 33.5 32.328125 
L 27.484375 33.5 
Q 16.453125 35.6875 11.515625 40.375 
Q 6.59375 45.0625 6.59375 53.421875 
Q 6.59375 63.09375 13.40625 68.65625 
Q 20.21875 74.21875 32.171875 74.21875 
Q 37.3125 74.21875 42.625 73.28125 
Q 47.953125 72.359375 53.515625 70.515625 
z
" id="DejaVuSans-83"/>
     <path d="M 14.796875 27.296875 
Q 14.796875 17.390625 18.875 11.75 
Q 22.953125 6.109375 30.078125 6.109375 
Q 37.203125 6.109375 41.296875 11.75 
Q 45.40625 17.390625 45.40625 27.296875 
Q 45.40625 37.203125 41.296875 42.84375 
Q 37.203125 48.484375 30.078125 48.484375 
Q 22.953125 48.484375 18.875 42.84375 
Q 14.796875 37.203125 14.796875 27.296875 
z
M 45.40625 8.203125 
Q 42.578125 3.328125 38.25 0.953125 
Q 33.9375 -1.421875 27.875 -1.421875 
Q 17.96875 -1.421875 11.734375 6.484375 
Q 5.515625 14.40625 5.515625 27.296875 
Q 5.515625 40.1875 11.734375 48.09375 
Q 17.96875 56 27.875 56 
Q 33.9375 56 38.25 53.625 
Q 42.578125 51.265625 45.40625 46.390625 
L 45.40625 54.6875 
L 54.390625 54.6875 
L 54.390625 -20.796875 
L 45.40625 -20.796875 
z
" id="DejaVuSans-113"/>
    </defs>
    <g transform="translate(158.97825 28.56)scale(0.072 -0.072)">
     <use xlink:href="#DejaVuSans-82"/>
     <use x="69.482422" xlink:href="#DejaVuSans-79"/>
     <use x="148.193359" xlink:href="#DejaVuSans-67"/>
     <use x="218.017578" xlink:href="#DejaVuSans-32"/>
     <use x="249.804688" xlink:href="#DejaVuSans-80"/>
     <use x="310.107422" xlink:href="#DejaVuSans-108"/>
     <use x="337.890625" xlink:href="#DejaVuSans-111"/>
     <use x="399.072266" xlink:href="#DejaVuSans-116"/>
     <use x="438.28125" xlink:href="#DejaVuSans-32"/>
     <use x="470.068359" xlink:href="#DejaVuSans-61"/>
     <use x="553.857422" xlink:href="#DejaVuSans-61"/>
     <use x="637.646484" xlink:href="#DejaVuSans-62"/>
     <use x="721.435547" xlink:href="#DejaVuSans-32"/>
     <use x="753.222656" xlink:href="#DejaVuSans-80"/>
     <use x="813.509766" xlink:href="#DejaVuSans-114"/>
     <use x="854.591797" xlink:href="#DejaVuSans-111"/>
     <use x="915.773438" xlink:href="#DejaVuSans-102"/>
     <use x="950.978516" xlink:href="#DejaVuSans-105"/>
     <use x="978.761719" xlink:href="#DejaVuSans-108"/>
     <use x="1006.544922" xlink:href="#DejaVuSans-101"/>
     <use x="1068.068359" xlink:href="#DejaVuSans-45"/>
     <use x="1104.152344" xlink:href="#DejaVuSans-116"/>
     <use x="1143.361328" xlink:href="#DejaVuSans-111"/>
     <use x="1204.558594" xlink:href="#DejaVuSans-45"/>
     <use x="1240.642578" xlink:href="#DejaVuSans-83"/>
     <use x="1304.119141" xlink:href="#DejaVuSans-101"/>
     <use x="1365.642578" xlink:href="#DejaVuSans-113"/>
     <use x="1429.119141" xlink:href="#DejaVuSans-117"/>
     <use x="1492.498047" xlink:href="#DejaVuSans-101"/>
     <use x="1554.021484" xlink:href="#DejaVuSans-110"/>
     <use x="1617.400391" xlink:href="#DejaVuSans-99"/>
     <use x="1672.380859" xlink:href="#DejaVuSans-101"/>
    </g>
   </g>
   <g id="legend_1">
    <g id="patch_7">
     <path d="M 271.784063 249 
L 384.6 249 
Q 385.8 249 385.8 247.8 
L 385.8 204.365625 
Q 385.8 203.165625 384.6 203.165625 
L 271.784063 203.165625 
Q 270.584063 203.165625 270.584063 204.365625 
L 270.584063 247.8 
Q 270.584063 249 271.784063 249 
z
" style="fill:#ffffff;opacity:0.8;stroke:#cccccc;stroke-linejoin:miter;"/>
    </g>
    <g id="line2d_80">
     <path d="M 272.984062 208.024687 
L 284.984062 208.024687 
" style="fill:none;stroke:#ff0000;stroke-linecap:square;stroke-opacity:0.5;stroke-width:2;"/>
    </g>
    <g id="line2d_81"/>
    <g id="text_21">
     <!-- hmmer -->
     <defs>
      <path d="M 54.890625 33.015625 
L 54.890625 0 
L 45.90625 0 
L 45.90625 32.71875 
Q 45.90625 40.484375 42.875 44.328125 
Q 39.84375 48.1875 33.796875 48.1875 
Q 26.515625 48.1875 22.3125 43.546875 
Q 18.109375 38.921875 18.109375 30.90625 
L 18.109375 0 
L 9.078125 0 
L 9.078125 75.984375 
L 18.109375 75.984375 
L 18.109375 46.1875 
Q 21.34375 51.125 25.703125 53.5625 
Q 30.078125 56 35.796875 56 
Q 45.21875 56 50.046875 50.171875 
Q 54.890625 44.34375 54.890625 33.015625 
z
" id="DejaVuSans-104"/>
     </defs>
     <g transform="translate(289.784063 210.124687)scale(0.06 -0.06)">
      <use xlink:href="#DejaVuSans-104"/>
      <use x="63.378906" xlink:href="#DejaVuSans-109"/>
      <use x="160.791016" xlink:href="#DejaVuSans-109"/>
      <use x="258.203125" xlink:href="#DejaVuSans-101"/>
      <use x="319.726562" xlink:href="#DejaVuSans-114"/>
     </g>
    </g>
    <g id="line2d_82">
     <path d="M 272.984062 216.831562 
L 284.984062 216.831562 
" style="fill:none;stroke:#0000ff;stroke-linecap:square;stroke-opacity:0.5;stroke-width:2;"/>
    </g>
    <g id="line2d_83"/>
    <g id="text_22">
     <!-- mmseqs-k80 -->
     <defs>
      <path d="M 9.078125 75.984375 
L 18.109375 75.984375 
L 18.109375 31.109375 
L 44.921875 54.6875 
L 56.390625 54.6875 
L 27.390625 29.109375 
L 57.625 0 
L 45.90625 0 
L 18.109375 26.703125 
L 18.109375 0 
L 9.078125 0 
z
" id="DejaVuSans-107"/>
     </defs>
     <g transform="translate(289.784063 218.931562)scale(0.06 -0.06)">
      <use xlink:href="#DejaVuSans-109"/>
      <use x="97.412109" xlink:href="#DejaVuSans-109"/>
      <use x="194.824219" xlink:href="#DejaVuSans-115"/>
      <use x="246.923828" xlink:href="#DejaVuSans-101"/>
      <use x="308.447266" xlink:href="#DejaVuSans-113"/>
      <use x="371.923828" xlink:href="#DejaVuSans-115"/>
      <use x="424.023438" xlink:href="#DejaVuSans-45"/>
      <use x="460.107422" xlink:href="#DejaVuSans-107"/>
      <use x="518.017578" xlink:href="#DejaVuSans-56"/>
      <use x="581.640625" xlink:href="#DejaVuSans-48"/>
     </g>
    </g>
    <g id="line2d_84">
     <path d="M 272.984062 225.638438 
L 284.984062 225.638438 
" style="fill:none;stroke:#32cd32;stroke-linecap:square;stroke-opacity:0.5;stroke-width:2;"/>
    </g>
    <g id="line2d_85"/>
    <g id="text_23">
     <!-- full-k80-e1000 -->
     <g transform="translate(289.784063 227.738438)scale(0.06 -0.06)">
      <use xlink:href="#DejaVuSans-102"/>
      <use x="35.205078" xlink:href="#DejaVuSans-117"/>
      <use x="98.583984" xlink:href="#DejaVuSans-108"/>
      <use x="126.367188" xlink:href="#DejaVuSans-108"/>
      <use x="154.150391" xlink:href="#DejaVuSans-45"/>
      <use x="190.234375" xlink:href="#DejaVuSans-107"/>
      <use x="248.144531" xlink:href="#DejaVuSans-56"/>
      <use x="311.767578" xlink:href="#DejaVuSans-48"/>
      <use x="375.390625" xlink:href="#DejaVuSans-45"/>
      <use x="411.474609" xlink:href="#DejaVuSans-101"/>
      <use x="472.998047" xlink:href="#DejaVuSans-49"/>
      <use x="536.621094" xlink:href="#DejaVuSans-48"/>
      <use x="600.244141" xlink:href="#DejaVuSans-48"/>
      <use x="663.867188" xlink:href="#DejaVuSans-48"/>
     </g>
    </g>
    <g id="line2d_86">
     <path d="M 272.984062 234.445312 
L 284.984062 234.445312 
" style="fill:none;stroke:#800080;stroke-linecap:square;stroke-opacity:0.5;stroke-width:2;"/>
    </g>
    <g id="line2d_87"/>
    <g id="text_24">
     <!-- mmore-k80-8-12-e1000 -->
     <g transform="translate(289.784063 236.545312)scale(0.06 -0.06)">
      <use xlink:href="#DejaVuSans-109"/>
      <use x="97.412109" xlink:href="#DejaVuSans-109"/>
      <use x="194.824219" xlink:href="#DejaVuSans-111"/>
      <use x="256.005859" xlink:href="#DejaVuSans-114"/>
      <use x="297.087891" xlink:href="#DejaVuSans-101"/>
      <use x="358.611328" xlink:href="#DejaVuSans-45"/>
      <use x="394.695312" xlink:href="#DejaVuSans-107"/>
      <use x="452.605469" xlink:href="#DejaVuSans-56"/>
      <use x="516.228516" xlink:href="#DejaVuSans-48"/>
      <use x="579.851562" xlink:href="#DejaVuSans-45"/>
      <use x="615.935547" xlink:href="#DejaVuSans-56"/>
      <use x="679.558594" xlink:href="#DejaVuSans-45"/>
      <use x="715.642578" xlink:href="#DejaVuSans-49"/>
      <use x="779.265625" xlink:href="#DejaVuSans-50"/>
      <use x="842.888672" xlink:href="#DejaVuSans-45"/>
      <use x="878.972656" xlink:href="#DejaVuSans-101"/>
      <use x="940.496094" xlink:href="#DejaVuSans-49"/>
      <use x="1004.119141" xlink:href="#DejaVuSans-48"/>
      <use x="1067.742188" xlink:href="#DejaVuSans-48"/>
      <use x="1131.365234" xlink:href="#DejaVuSans-48"/>
     </g>
    </g>
    <g id="line2d_88">
     <path d="M 272.984062 243.252188 
L 284.984062 243.252188 
" style="fill:none;stroke:#ff8c00;stroke-linecap:square;stroke-opacity:0.5;stroke-width:2;"/>
    </g>
    <g id="line2d_89"/>
    <g id="text_25">
     <!-- mmore-nobias-k80-8-12-e1000 -->
     <g transform="translate(289.784063 245.352188)scale(0.06 -0.06)">
      <use xlink:href="#DejaVuSans-109"/>
      <use x="97.412109" xlink:href="#DejaVuSans-109"/>
      <use x="194.824219" xlink:href="#DejaVuSans-111"/>
      <use x="256.005859" xlink:href="#DejaVuSans-114"/>
      <use x="297.087891" xlink:href="#DejaVuSans-101"/>
      <use x="358.611328" xlink:href="#DejaVuSans-45"/>
      <use x="394.695312" xlink:href="#DejaVuSans-110"/>
      <use x="458.074219" xlink:href="#DejaVuSans-111"/>
      <use x="519.255859" xlink:href="#DejaVuSans-98"/>
      <use x="582.732422" xlink:href="#DejaVuSans-105"/>
      <use x="610.515625" xlink:href="#DejaVuSans-97"/>
      <use x="671.794922" xlink:href="#DejaVuSans-115"/>
      <use x="723.894531" xlink:href="#DejaVuSans-45"/>
      <use x="759.978516" xlink:href="#DejaVuSans-107"/>
      <use x="817.888672" xlink:href="#DejaVuSans-56"/>
      <use x="881.511719" xlink:href="#DejaVuSans-48"/>
      <use x="945.134766" xlink:href="#DejaVuSans-45"/>
      <use x="981.21875" xlink:href="#DejaVuSans-56"/>
      <use x="1044.841797" xlink:href="#DejaVuSans-45"/>
      <use x="1080.925781" xlink:href="#DejaVuSans-49"/>
      <use x="1144.548828" xlink:href="#DejaVuSans-50"/>
      <use x="1208.171875" xlink:href="#DejaVuSans-45"/>
      <use x="1244.255859" xlink:href="#DejaVuSans-101"/>
      <use x="1305.779297" xlink:href="#DejaVuSans-49"/>
      <use x="1369.402344" xlink:href="#DejaVuSans-48"/>
      <use x="1433.025391" xlink:href="#DejaVuSans-48"/>
      <use x="1496.648438" xlink:href="#DejaVuSans-48"/>
     </g>
    </g>
   </g>
  </g>
 </g>
 <defs>
  <clipPath id="pe9560e3104">
   <rect height="217.44" width="334.8" x="54" y="34.56"/>
  </clipPath>
 </defs>
</svg>
